<svg width="152" height="152" viewBox="0 0 152 152" fill="none" xmlns="http://www.w3.org/2000/svg">
<rect x="12" y="12" width="128" height="128" rx="64" fill="#00FF1A" fill-opacity="0.1"/>
<rect x="12" y="12" width="128" height="128" rx="64" stroke="#ECFDF3" stroke-width="22.8571"/>
<path d="M102.666 73.5467V76C102.663 81.7505 100.801 87.3458 97.358 91.9515C93.9149 96.5573 89.0752 99.9266 83.5607 101.557C78.0463 103.188 72.1525 102.992 66.7584 100.999C61.3643 99.0061 56.7589 95.3229 53.629 90.4989C50.4992 85.6748 49.0126 79.9682 49.3909 74.2302C49.7693 68.4922 51.9923 63.0302 55.7285 58.6589C59.4647 54.2875 64.5139 51.241 70.123 49.9737C75.732 48.7064 81.6005 49.2862 86.8531 51.6267M102.666 54.6667L75.9998 81.36L67.9998 73.36" stroke="#25A249" stroke-width="5.33333" stroke-linecap="round" stroke-linejoin="round"/>
</svg>
