<svg width="200" height="200" viewBox="0 0 200 200" fill="none" xmlns="http://www.w3.org/2000/svg">
<path d="M24.0467 42.9377C21.839 41.2791 18.6931 41.7178 17.1468 44.0057C5.46552 61.2895 -0.542137 81.8356 0.0384251 102.772C0.665285 125.378 8.93602 147.104 23.5007 164.404C38.0654 181.704 58.064 193.556 80.2324 198.027C102.401 202.497 125.43 199.321 145.561 189.018C165.692 178.715 181.736 161.892 191.075 141.295C200.414 120.699 202.496 97.5455 196.981 75.6136C191.466 53.6817 178.68 34.2667 160.71 20.5374C144.067 7.82207 123.888 0.679023 103.036 0.0460397C100.276 -0.03775 98.0802 2.25743 98.1344 5.01832C98.1887 7.77921 100.473 9.95887 103.232 10.058C121.821 10.7257 139.793 17.1415 154.639 28.4837C170.812 40.84 182.319 58.3136 187.283 78.0523C192.246 97.791 190.373 118.629 181.968 137.166C173.563 155.703 159.123 170.843 141.005 180.116C122.887 189.389 102.161 192.247 82.2092 188.224C62.2576 184.201 44.2589 173.534 31.1507 157.964C18.0424 142.393 10.5988 122.84 10.0346 102.495C9.51672 83.8193 14.8234 65.489 25.1533 50.0202C26.6868 47.7238 26.2545 44.5964 24.0467 42.9377Z" fill="#28A745"/>
<path d="M152.948 83.1558C155.283 82.4129 156.59 79.9096 155.676 77.6356C151.783 67.9431 145.415 59.4091 137.177 52.9055C128.938 46.4019 119.159 42.1896 108.828 40.6529C106.404 40.2924 104.272 42.1442 104.092 44.5882C103.911 47.0322 105.751 49.1402 108.171 49.5318C116.734 50.9181 124.831 54.466 131.678 59.8714C138.525 65.2767 143.856 72.3281 147.193 80.336C148.135 82.5981 150.613 83.8988 152.948 83.1558Z" fill="#DC3545"/>
<path d="M140.317 164.425C141.489 166.297 143.964 166.873 145.776 165.609C158.782 156.535 168.825 143.778 174.583 128.937C180.825 112.849 181.697 95.1756 177.071 78.5519C172.445 61.9282 162.568 47.2458 148.914 36.6955C136.317 26.9621 121.128 21.227 105.303 20.1759C103.099 20.0295 101.277 21.8013 101.241 24.0101C101.205 26.219 102.968 28.0273 105.172 28.1859C119.27 29.2011 132.791 34.3477 144.022 43.026C156.311 52.5212 165.201 65.7353 169.364 80.6967C173.528 95.658 172.742 111.565 167.125 126.043C161.991 139.275 153.073 150.667 141.526 158.819C139.721 160.093 139.145 162.552 140.317 164.425Z" fill="#F59E0B"/>
</svg>
