<svg width="79" height="22" viewBox="0 0 79 22" fill="none" xmlns="http://www.w3.org/2000/svg">
<rect width="79" height="22" rx="11" fill="#ECFDF3"/>
<circle cx="10" cy="11" r="3" fill="#12B76A"/>
<path d="M21.2459 15V6.27273H24.3567C25.0357 6.27273 25.5982 6.39631 26.0442 6.64347C26.4902 6.89062 26.824 7.22869 27.0456 7.65767C27.2672 8.08381 27.378 8.56392 27.378 9.09801C27.378 9.63494 27.2658 10.1179 27.0414 10.5469C26.8198 10.973 26.4846 11.3111 26.0357 11.5611C25.5897 11.8082 25.0286 11.9318 24.3525 11.9318H22.2132V10.8153H24.2331C24.6621 10.8153 25.0101 10.7415 25.2772 10.5938C25.5442 10.4432 25.7402 10.2386 25.8652 9.98011C25.9902 9.72159 26.0527 9.42756 26.0527 9.09801C26.0527 8.76847 25.9902 8.47585 25.8652 8.22017C25.7402 7.96449 25.5428 7.7642 25.2729 7.61932C25.0059 7.47443 24.6536 7.40199 24.2161 7.40199H22.5627V15H21.2459ZM28.8194 15V8.45455H30.051V9.49432H30.1191C30.2385 9.14205 30.4487 8.86506 30.7498 8.66335C31.0538 8.45881 31.3975 8.35653 31.7811 8.35653C31.8606 8.35653 31.9544 8.35937 32.0623 8.36506C32.1731 8.37074 32.2598 8.37784 32.3223 8.38636V9.60511C32.2711 9.59091 32.1802 9.57528 32.0495 9.55824C31.9189 9.53835 31.7882 9.52841 31.6575 9.52841C31.3564 9.52841 31.0879 9.59233 30.8521 9.72017C30.6191 9.84517 30.4345 10.0199 30.2981 10.2443C30.1618 10.4659 30.0936 10.7187 30.0936 11.0028V15H28.8194ZM36.0115 15.1321C35.3667 15.1321 34.8113 14.9943 34.3453 14.7188C33.8823 14.4403 33.5243 14.0497 33.2715 13.5469C33.0215 13.0412 32.8965 12.4489 32.8965 11.7699C32.8965 11.0994 33.0215 10.5085 33.2715 9.99716C33.5243 9.4858 33.8766 9.08665 34.3283 8.79972C34.7828 8.51278 35.3141 8.36932 35.9221 8.36932C36.2914 8.36932 36.6493 8.4304 36.9959 8.55256C37.3425 8.67472 37.6536 8.86648 37.9292 9.12784C38.2047 9.3892 38.4221 9.72869 38.5811 10.1463C38.7402 10.5611 38.8198 11.0653 38.8198 11.6591V12.1108H33.6167V11.1562H37.5712C37.5712 10.821 37.503 10.5241 37.3667 10.2656C37.2303 10.0043 37.0385 9.7983 36.7914 9.64773C36.5471 9.49716 36.2601 9.42188 35.9306 9.42188C35.5726 9.42188 35.2601 9.50994 34.9931 9.68608C34.7289 9.85937 34.5243 10.0866 34.3794 10.3679C34.2374 10.6463 34.1664 10.9489 34.1664 11.2756V12.0213C34.1664 12.4588 34.2431 12.831 34.3965 13.1378C34.5527 13.4446 34.7701 13.679 35.0485 13.8409C35.3269 14 35.6522 14.0795 36.0243 14.0795C36.2658 14.0795 36.486 14.0455 36.6848 13.9773C36.8837 13.9062 37.0556 13.8011 37.2005 13.6619C37.3453 13.5227 37.4561 13.3509 37.5328 13.1463L38.7388 13.3636C38.6422 13.7187 38.4689 14.0298 38.2189 14.2969C37.9718 14.5611 37.6607 14.767 37.2857 14.9148C36.9135 15.0597 36.4888 15.1321 36.0115 15.1321ZM40.2335 15V8.45455H41.4565V9.51989H41.5375C41.6738 9.15909 41.8968 8.87784 42.2065 8.67614C42.5162 8.47159 42.8869 8.36932 43.3187 8.36932C43.7562 8.36932 44.1227 8.47159 44.4181 8.67614C44.7164 8.88068 44.9366 9.16193 45.0787 9.51989H45.1468C45.3031 9.17045 45.5517 8.89205 45.8926 8.68466C46.2335 8.47443 46.6397 8.36932 47.1113 8.36932C47.7051 8.36932 48.1895 8.5554 48.5645 8.92756C48.9423 9.29972 49.1312 9.8608 49.1312 10.6108V15H47.8571V10.7301C47.8571 10.2869 47.7363 9.96591 47.4949 9.76705C47.2534 9.56818 46.965 9.46875 46.6298 9.46875C46.215 9.46875 45.8926 9.59659 45.6625 9.85227C45.4324 10.1051 45.3173 10.4304 45.3173 10.8281V15H44.0474V10.6491C44.0474 10.294 43.9366 10.0085 43.715 9.79261C43.4934 9.5767 43.2051 9.46875 42.85 9.46875C42.6085 9.46875 42.3855 9.53267 42.1809 9.66051C41.9792 9.78551 41.8159 9.96023 41.6909 10.1847C41.5687 10.4091 41.5076 10.669 41.5076 10.9645V15H40.2335ZM50.839 15V8.45455H52.1131V15H50.839ZM51.4824 7.4446C51.2608 7.4446 51.0705 7.37074 50.9114 7.22301C50.7551 7.07244 50.677 6.89347 50.677 6.68608C50.677 6.47585 50.7551 6.29687 50.9114 6.14915C51.0705 5.99858 51.2608 5.9233 51.4824 5.9233C51.704 5.9233 51.8929 5.99858 52.0492 6.14915C52.2083 6.29687 52.2878 6.47585 52.2878 6.68608C52.2878 6.89347 52.2083 7.07244 52.0492 7.22301C51.8929 7.37074 51.704 7.4446 51.4824 7.4446ZM57.9735 12.2855V8.45455H59.252V15H57.9991V13.8665H57.9309C57.7804 14.2159 57.5389 14.5071 57.2065 14.7401C56.877 14.9702 56.4664 15.0852 55.975 15.0852C55.5545 15.0852 55.1824 14.9929 54.8585 14.8082C54.5375 14.6207 54.2846 14.3438 54.1 13.9773C53.9181 13.6108 53.8272 13.1577 53.8272 12.6179V8.45455H55.1014V12.4645C55.1014 12.9105 55.225 13.2656 55.4721 13.5298C55.7193 13.794 56.0403 13.9261 56.4352 13.9261C56.6738 13.9261 56.911 13.8665 57.1468 13.7472C57.3855 13.6278 57.5829 13.4474 57.7392 13.206C57.8983 12.9645 57.9764 12.6577 57.9735 12.2855ZM60.964 15V8.45455H62.187V9.51989H62.2679C62.4043 9.15909 62.6273 8.87784 62.937 8.67614C63.2466 8.47159 63.6174 8.36932 64.0492 8.36932C64.4867 8.36932 64.8532 8.47159 65.1486 8.67614C65.4469 8.88068 65.6671 9.16193 65.8091 9.51989H65.8773C66.0336 9.17045 66.2821 8.89205 66.623 8.68466C66.964 8.47443 67.3702 8.36932 67.8418 8.36932C68.4355 8.36932 68.9199 8.5554 69.2949 8.92756C69.6728 9.29972 69.8617 9.8608 69.8617 10.6108V15H68.5875V10.7301C68.5875 10.2869 68.4668 9.96591 68.2253 9.76705C67.9838 9.56818 67.6955 9.46875 67.3603 9.46875C66.9455 9.46875 66.623 9.59659 66.3929 9.85227C66.1628 10.1051 66.0478 10.4304 66.0478 10.8281V15H64.7779V10.6491C64.7779 10.294 64.6671 10.0085 64.4455 9.79261C64.2239 9.5767 63.9355 9.46875 63.5804 9.46875C63.339 9.46875 63.1159 9.53267 62.9114 9.66051C62.7097 9.78551 62.5463 9.96023 62.4213 10.1847C62.2992 10.4091 62.2381 10.669 62.2381 10.9645V15H60.964Z" fill="#027A48"/>
</svg>
