<svg width="81" height="22" viewBox="0 0 81 22" fill="none" xmlns="http://www.w3.org/2000/svg">
<rect width="81" height="22" rx="11" fill="#FFFAEB"/>
<circle cx="10" cy="11" r="3" fill="#F79009"/>
<path d="M26.0098 8.56534C25.9643 8.16193 25.7768 7.84943 25.4473 7.62784C25.1177 7.40341 24.7029 7.29119 24.2029 7.29119C23.845 7.29119 23.5353 7.34801 23.274 7.46165C23.0126 7.57244 22.8095 7.72585 22.6646 7.92188C22.5225 8.11506 22.4515 8.33523 22.4515 8.58239C22.4515 8.78977 22.4998 8.96875 22.5964 9.11932C22.6958 9.26989 22.8251 9.39631 22.9842 9.49858C23.1461 9.59801 23.3194 9.68182 23.5041 9.75C23.6887 9.81534 23.8663 9.86932 24.0368 9.91193L24.889 10.1335C25.1674 10.2017 25.4529 10.294 25.7456 10.4105C26.0382 10.527 26.3095 10.6804 26.5595 10.8707C26.8095 11.0611 27.0112 11.2969 27.1646 11.5781C27.3208 11.8594 27.399 12.196 27.399 12.5881C27.399 13.0824 27.2711 13.5213 27.0154 13.9048C26.7626 14.2884 26.3947 14.5909 25.9118 14.8125C25.4316 15.0341 24.8507 15.1449 24.1689 15.1449C23.5154 15.1449 22.9501 15.0412 22.4728 14.8338C21.9956 14.6264 21.622 14.3324 21.3521 13.9517C21.0822 13.5682 20.9331 13.1136 20.9047 12.5881H22.2257C22.2512 12.9034 22.3535 13.1662 22.5325 13.3764C22.7143 13.5838 22.9458 13.7386 23.2271 13.8409C23.5112 13.9403 23.8223 13.9901 24.1603 13.9901C24.5325 13.9901 24.8635 13.9318 25.1532 13.8153C25.4458 13.696 25.676 13.5312 25.8436 13.321C26.0112 13.108 26.095 12.8594 26.095 12.5753C26.095 12.3168 26.0211 12.1051 25.8734 11.9403C25.7285 11.7756 25.5311 11.6392 25.2811 11.5312C25.0339 11.4233 24.7541 11.3281 24.4416 11.2457L23.4103 10.9645C22.7115 10.7741 22.1575 10.4943 21.7484 10.125C21.3422 9.75568 21.139 9.26705 21.139 8.65909C21.139 8.15625 21.2754 7.71733 21.5481 7.34233C21.8208 6.96733 22.1902 6.67614 22.6561 6.46875C23.122 6.25852 23.6475 6.15341 24.2328 6.15341C24.8237 6.15341 25.345 6.2571 25.7967 6.46449C26.2512 6.67188 26.6092 6.95739 26.8706 7.32102C27.1319 7.68182 27.2683 8.09659 27.2797 8.56534H26.0098ZM31.9256 8.45455V9.47727H28.3503V8.45455H31.9256ZM29.3091 6.88636H30.5833V13.0781C30.5833 13.3253 30.6202 13.5114 30.6941 13.6364C30.7679 13.7585 30.8631 13.8423 30.9796 13.8878C31.0989 13.9304 31.2282 13.9517 31.3674 13.9517C31.4696 13.9517 31.5591 13.9446 31.6358 13.9304C31.7125 13.9162 31.7722 13.9048 31.8148 13.8963L32.0449 14.9489C31.9711 14.9773 31.8659 15.0057 31.7296 15.0341C31.5932 15.0653 31.4228 15.0824 31.2182 15.0852C30.883 15.0909 30.5705 15.0312 30.2807 14.9062C29.9909 14.7812 29.7566 14.5881 29.5776 14.3267C29.3986 14.0653 29.3091 13.7372 29.3091 13.3423V6.88636ZM35.2399 15.1449C34.8251 15.1449 34.4501 15.0682 34.1149 14.9148C33.7797 14.7585 33.514 14.5327 33.318 14.2372C33.1248 13.9418 33.0282 13.5795 33.0282 13.1506C33.0282 12.7812 33.0993 12.4773 33.2413 12.2386C33.3833 12 33.5751 11.8111 33.8166 11.6719C34.0581 11.5327 34.3279 11.4276 34.6262 11.3565C34.9245 11.2855 35.2285 11.2315 35.5382 11.1946C35.9302 11.1491 36.2484 11.1122 36.4927 11.0838C36.737 11.0526 36.9146 11.0028 37.0254 10.9347C37.1362 10.8665 37.1916 10.7557 37.1916 10.6023V10.5724C37.1916 10.2003 37.0865 9.91193 36.8762 9.70739C36.6689 9.50284 36.3592 9.40057 35.9473 9.40057C35.5183 9.40057 35.1802 9.49574 34.9331 9.68608C34.6887 9.87358 34.5197 10.0824 34.426 10.3125L33.2285 10.0398C33.3706 9.64205 33.5779 9.32102 33.8507 9.0767C34.1262 8.82955 34.443 8.65057 34.801 8.53977C35.1589 8.42614 35.5353 8.36932 35.9302 8.36932C36.1916 8.36932 36.4686 8.40057 36.7612 8.46307C37.0566 8.52273 37.3322 8.63352 37.5879 8.79545C37.8464 8.95739 38.0581 9.18892 38.2228 9.49006C38.3876 9.78835 38.47 10.1761 38.47 10.6534V15H37.2257V14.1051H37.1745C37.0922 14.2699 36.9686 14.4318 36.8038 14.5909C36.639 14.75 36.4274 14.8821 36.1689 14.9872C35.9103 15.0923 35.6007 15.1449 35.2399 15.1449ZM35.5169 14.1222C35.8691 14.1222 36.1703 14.0526 36.4203 13.9134C36.6731 13.7741 36.8649 13.5923 36.9956 13.3679C37.1291 13.1406 37.1958 12.8977 37.1958 12.6392V11.7955C37.1504 11.8409 37.0623 11.8835 36.9316 11.9233C36.8038 11.9602 36.6575 11.9929 36.4927 12.0213C36.3279 12.0469 36.1674 12.071 36.0112 12.0938C35.8549 12.1136 35.7243 12.1307 35.6191 12.1449C35.372 12.1761 35.1461 12.2287 34.9416 12.3026C34.7399 12.3764 34.5779 12.483 34.4558 12.6222C34.3365 12.7585 34.2768 12.9403 34.2768 13.1676C34.2768 13.483 34.3933 13.7216 34.6262 13.8835C34.8592 14.0426 35.1561 14.1222 35.5169 14.1222ZM41.4412 11.1136V15H40.1671V8.45455H41.3901V9.51989H41.4711C41.6216 9.1733 41.8574 8.89489 42.1784 8.68466C42.5023 8.47443 42.91 8.36932 43.4015 8.36932C43.8475 8.36932 44.2381 8.46307 44.5733 8.65057C44.9086 8.83523 45.1685 9.1108 45.3532 9.47727C45.5378 9.84375 45.6301 10.2969 45.6301 10.8366V15H44.356V10.9901C44.356 10.5156 44.2324 10.1449 43.9853 9.87784C43.7381 9.60795 43.3986 9.47301 42.9668 9.47301C42.6713 9.47301 42.4086 9.53693 42.1784 9.66477C41.9512 9.79261 41.7708 9.98011 41.6373 10.2273C41.5066 10.4716 41.4412 10.767 41.4412 11.1136ZM49.7892 15.1278C49.2608 15.1278 48.7892 14.9929 48.3745 14.723C47.9625 14.4503 47.6387 14.0625 47.4029 13.5597C47.1699 13.054 47.0534 12.4474 47.0534 11.7401C47.0534 11.0327 47.1713 10.4276 47.4071 9.92472C47.6458 9.42187 47.9725 9.03693 48.3873 8.76989C48.802 8.50284 49.2722 8.36932 49.7978 8.36932C50.204 8.36932 50.5307 8.4375 50.7779 8.57386C51.0279 8.70739 51.2211 8.86364 51.3574 9.04261C51.4966 9.22159 51.6046 9.37926 51.6813 9.51562H51.758V6.27273H53.0321V15H51.7878V13.9815H51.6813C51.6046 14.1207 51.4938 14.2798 51.3489 14.4588C51.2069 14.6378 51.0108 14.794 50.7608 14.9276C50.5108 15.0611 50.187 15.1278 49.7892 15.1278ZM50.0705 14.0412C50.437 14.0412 50.7466 13.9446 50.9995 13.7514C51.2551 13.5554 51.4483 13.2841 51.579 12.9375C51.7125 12.5909 51.7793 12.1875 51.7793 11.7273C51.7793 11.2727 51.714 10.875 51.5833 10.5341C51.4526 10.1932 51.2608 9.92756 51.008 9.73722C50.7551 9.54687 50.4426 9.4517 50.0705 9.4517C49.687 9.4517 49.3674 9.55114 49.1117 9.75C48.856 9.94886 48.6628 10.2202 48.5321 10.5639C48.4043 10.9077 48.3404 11.2955 48.3404 11.7273C48.3404 12.1648 48.4057 12.5582 48.5364 12.9077C48.6671 13.2571 48.8603 13.5341 49.1159 13.7386C49.3745 13.9403 49.6926 14.0412 50.0705 14.0412ZM56.7555 15.1449C56.3407 15.1449 55.9657 15.0682 55.6305 14.9148C55.2953 14.7585 55.0297 14.5327 54.8336 14.2372C54.6404 13.9418 54.5439 13.5795 54.5439 13.1506C54.5439 12.7812 54.6149 12.4773 54.7569 12.2386C54.899 12 55.0907 11.8111 55.3322 11.6719C55.5737 11.5327 55.8436 11.4276 56.1419 11.3565C56.4402 11.2855 56.7441 11.2315 57.0538 11.1946C57.4458 11.1491 57.764 11.1122 58.0083 11.0838C58.2527 11.0526 58.4302 11.0028 58.541 10.9347C58.6518 10.8665 58.7072 10.7557 58.7072 10.6023V10.5724C58.7072 10.2003 58.6021 9.91193 58.3919 9.70739C58.1845 9.50284 57.8748 9.40057 57.4629 9.40057C57.0339 9.40057 56.6958 9.49574 56.4487 9.68608C56.2044 9.87358 56.0353 10.0824 55.9416 10.3125L54.7441 10.0398C54.8862 9.64205 55.0936 9.32102 55.3663 9.0767C55.6419 8.82955 55.9586 8.65057 56.3166 8.53977C56.6745 8.42614 57.051 8.36932 57.4458 8.36932C57.7072 8.36932 57.9842 8.40057 58.2768 8.46307C58.5723 8.52273 58.8478 8.63352 59.1035 8.79545C59.362 8.95739 59.5737 9.18892 59.7385 9.49006C59.9032 9.78835 59.9856 10.1761 59.9856 10.6534V15H58.7413V14.1051H58.6902C58.6078 14.2699 58.4842 14.4318 58.3194 14.5909C58.1547 14.75 57.943 14.8821 57.6845 14.9872C57.426 15.0923 57.1163 15.1449 56.7555 15.1449ZM57.0325 14.1222C57.3848 14.1222 57.6859 14.0526 57.9359 13.9134C58.1887 13.7741 58.3805 13.5923 58.5112 13.3679C58.6447 13.1406 58.7115 12.8977 58.7115 12.6392V11.7955C58.666 11.8409 58.5779 11.8835 58.4473 11.9233C58.3194 11.9602 58.1731 11.9929 58.0083 12.0213C57.8436 12.0469 57.6831 12.071 57.5268 12.0938C57.3706 12.1136 57.2399 12.1307 57.1348 12.1449C56.8876 12.1761 56.6618 12.2287 56.4572 12.3026C56.2555 12.3764 56.0936 12.483 55.9714 12.6222C55.8521 12.7585 55.7924 12.9403 55.7924 13.1676C55.7924 13.483 55.9089 13.7216 56.1419 13.8835C56.3748 14.0426 56.6717 14.1222 57.0325 14.1222ZM61.6827 15V8.45455H62.9142V9.49432H62.9824C63.1017 9.14205 63.312 8.86506 63.6131 8.66335C63.9171 8.45881 64.2608 8.35653 64.6444 8.35653C64.7239 8.35653 64.8176 8.35937 64.9256 8.36506C65.0364 8.37074 65.123 8.37784 65.1855 8.38636V9.60511C65.1344 9.59091 65.0435 9.57528 64.9128 9.55824C64.7821 9.53835 64.6515 9.52841 64.5208 9.52841C64.2196 9.52841 63.9512 9.59233 63.7154 9.72017C63.4824 9.84517 63.2978 10.0199 63.1614 10.2443C63.025 10.4659 62.9569 10.7187 62.9569 11.0028V15H61.6827ZM68.5041 15.1278C67.9757 15.1278 67.5041 14.9929 67.0893 14.723C66.6774 14.4503 66.3535 14.0625 66.1177 13.5597C65.8848 13.054 65.7683 12.4474 65.7683 11.7401C65.7683 11.0327 65.8862 10.4276 66.122 9.92472C66.3606 9.42187 66.6873 9.03693 67.1021 8.76989C67.5169 8.50284 67.987 8.36932 68.5126 8.36932C68.9189 8.36932 69.2456 8.4375 69.4927 8.57386C69.7427 8.70739 69.9359 8.86364 70.0723 9.04261C70.2115 9.22159 70.3194 9.37926 70.3961 9.51562H70.4728V6.27273H71.747V15H70.5027V13.9815H70.3961C70.3194 14.1207 70.2086 14.2798 70.0637 14.4588C69.9217 14.6378 69.7257 14.794 69.4757 14.9276C69.2257 15.0611 68.9018 15.1278 68.5041 15.1278ZM68.7853 14.0412C69.1518 14.0412 69.4615 13.9446 69.7143 13.7514C69.97 13.5554 70.1632 13.2841 70.2939 12.9375C70.4274 12.5909 70.4941 12.1875 70.4941 11.7273C70.4941 11.2727 70.4288 10.875 70.2981 10.5341C70.1674 10.1932 69.9757 9.92756 69.7228 9.73722C69.47 9.54687 69.1575 9.4517 68.7853 9.4517C68.4018 9.4517 68.0822 9.55114 67.8265 9.75C67.5708 9.94886 67.3777 10.2202 67.247 10.5639C67.1191 10.9077 67.0552 11.2955 67.0552 11.7273C67.0552 12.1648 67.1206 12.5582 67.2512 12.9077C67.3819 13.2571 67.5751 13.5341 67.8308 13.7386C68.0893 13.9403 68.4075 14.0412 68.7853 14.0412Z" fill="#B54708"/>
</svg>
