<svg width="193" height="52" viewBox="0 0 193 52" fill="none" xmlns="http://www.w3.org/2000/svg">
<path d="M10.9861 36.412C9.13216 36.412 7.48425 35.9886 6.04233 35.1417C4.6233 34.272 3.51325 33.1047 2.71218 31.6399C1.91112 30.1522 1.51058 28.4929 1.51058 26.6618C1.51058 24.7851 1.91112 23.1257 2.71218 21.6838C3.53614 20.2419 4.63474 19.1089 6.008 18.285C7.38126 17.4381 8.93762 17.0147 10.6771 17.0147C12.0732 17.0147 13.3206 17.255 14.4192 17.7357C15.5178 18.2163 16.4448 18.8801 17.2001 19.7269C17.9553 20.5509 18.5275 21.5007 18.9166 22.5764C19.3286 23.6521 19.5346 24.7965 19.5346 26.0096C19.5346 26.3071 19.5231 26.6161 19.5003 26.9365C19.4774 27.2569 19.4316 27.5545 19.3629 27.8291H4.56608V24.7393H17.1657L15.3118 26.1469C15.5407 25.0254 15.4606 24.0298 15.0715 23.16C14.7053 22.2674 14.1331 21.5694 13.3549 21.0658C12.5996 20.5394 11.707 20.2762 10.6771 20.2762C9.64713 20.2762 8.73163 20.5394 7.93056 21.0658C7.1295 21.5694 6.51153 22.3018 6.07666 23.263C5.6418 24.2014 5.47014 25.3458 5.56169 26.6962C5.44725 27.955 5.61891 29.0536 6.07666 29.992C6.5573 30.9304 7.22105 31.6628 8.06789 32.1892C8.93762 32.7156 9.92179 32.9788 11.0204 32.9788C12.1419 32.9788 13.0917 32.7271 13.8699 32.2235C14.671 31.72 15.3004 31.0677 15.7581 30.2666L18.9166 31.8116C18.5504 32.6813 17.9782 33.4709 17.2001 34.1804C16.4448 34.8671 15.5293 35.4164 14.4535 35.8283C13.4007 36.2174 12.2449 36.412 10.9861 36.412ZM50.1478 36.412C48.2939 36.412 46.646 35.9886 45.204 35.1417C43.785 34.272 42.6521 33.1047 41.8052 31.6399C40.9813 30.1751 40.5693 28.5157 40.5693 26.6618C40.5693 24.8308 40.9813 23.1829 41.8052 21.7181C42.6292 20.2533 43.7621 19.1089 45.204 18.285C46.646 17.4381 48.2939 17.0147 50.1478 17.0147C51.4066 17.0147 52.5853 17.2436 53.6839 17.7013C54.7825 18.1362 55.7324 18.7427 56.5334 19.5209C57.3574 20.2991 57.9639 21.2032 58.353 22.2331L54.9542 23.8123C54.5651 22.8511 53.9357 22.0843 53.0659 21.5121C52.2191 20.9171 51.2464 20.6195 50.1478 20.6195C49.0949 20.6195 48.1451 20.8827 47.2983 21.4091C46.4743 21.9127 45.822 22.6336 45.3414 23.572C44.8607 24.4875 44.6204 25.5289 44.6204 26.6962C44.6204 27.8634 44.8607 28.9163 45.3414 29.8547C45.822 30.7702 46.4743 31.4911 47.2983 32.0176C48.1451 32.544 49.0949 32.8072 50.1478 32.8072C51.2693 32.8072 52.242 32.5211 53.0659 31.9489C53.9128 31.3538 54.5422 30.5642 54.9542 29.58L58.353 31.1936C57.9868 32.1778 57.3917 33.0704 56.5677 33.8715C55.7667 34.6496 54.8168 35.2676 53.7182 35.7253C52.6196 36.1831 51.4295 36.412 50.1478 36.412ZM62.1447 36V10.0111H66.0242V21.0658L65.4062 20.5852C65.864 19.4179 66.5964 18.5367 67.6034 17.9417C68.6105 17.3237 69.7778 17.0147 71.1052 17.0147C72.4785 17.0147 73.6915 17.3123 74.7444 17.9073C75.7972 18.5024 76.6212 19.3264 77.2162 20.3792C77.8113 21.432 78.1088 22.6336 78.1088 23.984V36H74.2637V25.0483C74.2637 24.1099 74.0806 23.3203 73.7144 22.6794C73.3711 22.0157 72.8905 21.5121 72.2725 21.1688C71.6545 20.8026 70.945 20.6195 70.144 20.6195C69.3658 20.6195 68.6563 20.8026 68.0154 21.1688C67.3974 21.5121 66.9054 22.0157 66.5392 22.6794C66.1958 23.3431 66.0242 24.1328 66.0242 25.0483V36H62.1447ZM87.8225 36.412C86.5637 36.412 85.4536 36.1945 84.4923 35.7597C83.554 35.3019 82.8215 34.684 82.2951 33.9058C81.7687 33.1047 81.5055 32.1663 81.5055 31.0906C81.5055 30.0835 81.7229 29.1795 82.1578 28.3784C82.6156 27.5774 83.3136 26.9022 84.252 26.3529C85.1904 25.8036 86.3691 25.4145 87.7882 25.1856L94.2425 24.1213V27.1768L88.5435 28.1724C87.5135 28.3555 86.7582 28.6874 86.2776 29.168C85.7969 29.6258 85.5566 30.2209 85.5566 30.9533C85.5566 31.6628 85.8198 32.2464 86.3462 32.7042C86.8955 33.139 87.5936 33.3565 88.4405 33.3565C89.4933 33.3565 90.4088 33.1276 91.187 32.6699C91.988 32.2121 92.606 31.6056 93.0409 30.8503C93.4757 30.0721 93.6932 29.2138 93.6932 28.2754V23.5034C93.6932 22.5879 93.3499 21.844 92.6632 21.2718C91.9995 20.6767 91.1069 20.3792 89.9854 20.3792C88.9554 20.3792 88.0514 20.6538 87.2732 21.2032C86.5179 21.7296 85.9572 22.4162 85.591 23.263L82.3638 21.6495C82.7071 20.734 83.2679 19.9329 84.046 19.2463C84.8242 18.5367 85.7283 17.9874 86.7582 17.5983C87.8111 17.2093 88.9211 17.0147 90.0884 17.0147C91.5532 17.0147 92.8463 17.2894 93.9678 17.8387C95.1122 18.388 95.9934 19.1547 96.6113 20.1389C97.2522 21.1002 97.5726 22.2216 97.5726 23.5034V36H93.8648V32.6355L94.6545 32.7385C94.2196 33.4938 93.6588 34.1461 92.9722 34.6954C92.3085 35.2447 91.5417 35.6681 90.672 35.9657C89.8252 36.2632 88.8753 36.412 87.8225 36.412ZM102.109 36V17.4267H105.816V21.0658L105.37 20.5852C105.828 19.4179 106.56 18.5367 107.567 17.9417C108.574 17.3237 109.742 17.0147 111.069 17.0147C112.442 17.0147 113.655 17.3123 114.708 17.9073C115.761 18.5024 116.585 19.3264 117.18 20.3792C117.775 21.432 118.073 22.6451 118.073 24.0183V36H114.228V25.0483C114.228 24.1099 114.056 23.3203 113.713 22.6794C113.369 22.0157 112.877 21.5121 112.236 21.1688C111.618 20.8026 110.909 20.6195 110.108 20.6195C109.307 20.6195 108.586 20.8026 107.945 21.1688C107.327 21.5121 106.846 22.0157 106.503 22.6794C106.16 23.3431 105.988 24.1328 105.988 25.0483V36H102.109ZM131.185 43.5529C129.835 43.5529 128.588 43.3355 127.443 42.9006C126.299 42.4658 125.315 41.8592 124.491 41.0811C123.667 40.3258 123.049 39.4331 122.637 38.4032L126.207 36.9269C126.528 37.7967 127.111 38.5176 127.958 39.0898C128.828 39.662 129.892 39.9481 131.151 39.9481C132.135 39.9481 133.016 39.7536 133.794 39.3645C134.573 38.9983 135.191 38.449 135.648 37.7166C136.106 37.0071 136.335 36.1488 136.335 35.1417V30.9533L137.022 31.7429C136.381 32.9331 135.488 33.8371 134.344 34.4551C133.222 35.0731 131.952 35.382 130.533 35.382C128.816 35.382 127.271 34.9815 125.898 34.1804C124.525 33.3794 123.438 32.2808 122.637 30.8846C121.859 29.4885 121.469 27.9207 121.469 26.1812C121.469 24.4189 121.859 22.8511 122.637 21.4778C123.438 20.1045 124.514 19.0174 125.864 18.2163C127.214 17.4152 128.759 17.0147 130.499 17.0147C131.918 17.0147 133.176 17.3237 134.275 17.9417C135.397 18.5367 136.312 19.4065 137.022 20.5509L136.507 21.5121V17.4267H140.18V35.1417C140.18 36.7438 139.791 38.1743 139.013 39.4331C138.258 40.7149 137.205 41.7219 135.854 42.4543C134.504 43.1867 132.948 43.5529 131.185 43.5529ZM130.979 31.7772C132.009 31.7772 132.925 31.5369 133.726 31.0563C134.527 30.5527 135.156 29.889 135.614 29.065C136.095 28.2182 136.335 27.2684 136.335 26.2155C136.335 25.1627 136.095 24.2129 135.614 23.366C135.133 22.5192 134.493 21.8554 133.691 21.3748C132.89 20.8713 131.986 20.6195 130.979 20.6195C129.926 20.6195 128.988 20.8713 128.164 21.3748C127.34 21.8554 126.688 22.5192 126.207 23.366C125.749 24.19 125.521 25.1398 125.521 26.2155C125.521 27.2455 125.749 28.1839 126.207 29.0307C126.688 29.8776 127.34 30.5527 128.164 31.0563C128.988 31.5369 129.926 31.7772 130.979 31.7772ZM153.441 36.412C151.588 36.412 149.94 35.9886 148.498 35.1417C147.079 34.272 145.969 33.1047 145.168 31.6399C144.366 30.1522 143.966 28.4929 143.966 26.6618C143.966 24.7851 144.366 23.1257 145.168 21.6838C145.991 20.2419 147.09 19.1089 148.463 18.285C149.837 17.4381 151.393 17.0147 153.132 17.0147C154.529 17.0147 155.776 17.255 156.875 17.7357C157.973 18.2163 158.9 18.8801 159.655 19.7269C160.411 20.5509 160.983 21.5007 161.372 22.5764C161.784 23.6521 161.99 24.7965 161.99 26.0096C161.99 26.3071 161.978 26.6161 161.956 26.9365C161.933 27.2569 161.887 27.5545 161.818 27.8291H147.021V24.7393H159.621L157.767 26.1469C157.996 25.0254 157.916 24.0298 157.527 23.16C157.161 22.2674 156.588 21.5694 155.81 21.0658C155.055 20.5394 154.162 20.2762 153.132 20.2762C152.102 20.2762 151.187 20.5394 150.386 21.0658C149.585 21.5694 148.967 22.3018 148.532 23.263C148.097 24.2014 147.925 25.3458 148.017 26.6962C147.903 27.955 148.074 29.0536 148.532 29.992C149.013 30.9304 149.676 31.6628 150.523 32.1892C151.393 32.7156 152.377 32.9788 153.476 32.9788C154.597 32.9788 155.547 32.7271 156.325 32.2235C157.126 31.72 157.756 31.0677 158.213 30.2666L161.372 31.8116C161.006 32.6813 160.434 33.4709 159.655 34.1804C158.9 34.8671 157.985 35.4164 156.909 35.8283C155.856 36.2174 154.7 36.412 153.441 36.412Z" fill="url(#paint0_linear_14_14647)"/>
<path d="M27.4777 26.4952L14.9507 8.15491H23.1056L31.6761 20.5472L35.9205 14.5339H42.9104L35.338 25.842L47.5704 43.5292L44.6579 51.6479L31.2259 31.9827L27.7656 37.1502H19.6106L20.7756 35.9904L27.4777 26.4952Z" fill="url(#paint1_linear_14_14647)"/>
<defs>
<linearGradient id="paint0_linear_14_14647" x1="0" y1="21.5" x2="164" y2="21.5" gradientUnits="userSpaceOnUse">
<stop offset="0.0677083" stop-color="#A5FECB"/>
<stop offset="0.536458" stop-color="#20BDFF"/>
<stop offset="0.921875" stop-color="#5433FF"/>
</linearGradient>
<linearGradient id="paint1_linear_14_14647" x1="50.4829" y1="48.7483" x2="21.521" y2="10.9297" gradientUnits="userSpaceOnUse">
<stop stop-color="#A5FECB"/>
<stop offset="0.985174" stop-color="#20BDFF"/>
</linearGradient>
</defs>
</svg>
