<svg width="142" height="117" viewBox="0 0 142 117" fill="none" xmlns="http://www.w3.org/2000/svg">
<path opacity="0.3" fill-rule="evenodd" clip-rule="evenodd" d="M0.49654 98.5987C21.6204 88.4263 32.1477 76.5464 32.0787 62.9587C23.0483 61.9979 15.567 58.4712 9.63477 52.3782C3.70254 46.2853 0.71605 39.2129 0.67521 31.1609C0.631818 22.6057 3.459 15.378 9.15685 9.47769C14.8547 3.57739 22.0426 0.605283 30.7208 0.561267C40.4405 0.51197 48.8776 4.28553 56.0324 11.8821C63.1873 19.4786 66.7923 28.7286 66.8476 39.6323C67.0135 72.3436 48.225 98.021 10.4816 116.665L0.49654 98.5987ZM75.2236 98.2197C96.5209 88.0464 107.135 76.1661 107.066 62.5783C97.8621 61.6185 90.294 58.0921 84.3618 51.9992C78.4296 45.9063 75.4431 38.8339 75.4022 30.7819C75.3588 22.2266 78.2294 14.9988 84.014 9.09802C89.7987 3.19728 97.03 0.224948 105.708 0.180933C115.428 0.131635 123.822 3.90542 130.89 11.5024C137.958 19.0994 141.519 28.3496 141.575 39.2533C141.741 71.9646 123.039 97.6416 85.4689 116.285L75.2236 98.2197Z" fill="#9747FF"/>
</svg>
