<svg width="153" height="25" viewBox="0 0 153 25" fill="none" xmlns="http://www.w3.org/2000/svg">
<path d="M10.5979 6.3541C11.3816 3.94208 11.7735 2.73607 12.5 2.73607C13.2265 2.73607 13.6184 3.94208 14.4021 6.3541L14.7451 7.40983C14.9618 8.0765 15.0701 8.40983 15.3329 8.60081C15.5958 8.7918 15.9463 8.7918 16.6473 8.7918H17.7573C20.2935 8.7918 21.5615 8.7918 21.7861 9.48278C22.0106 10.1738 20.9847 10.9191 18.9329 12.4098L18.0348 13.0623C17.4677 13.4743 17.1842 13.6803 17.0838 13.9894C16.9834 14.2984 17.0917 14.6317 17.3083 15.2984L17.6513 16.3541C18.435 18.7661 18.8269 19.9721 18.2391 20.3992C17.6513 20.8262 16.6254 20.0809 14.5736 18.5902L13.6756 17.9377C13.1085 17.5257 12.8249 17.3197 12.5 17.3197C12.1751 17.3197 11.8915 17.5257 11.3244 17.9377L10.4264 18.5902C8.37459 20.0809 7.34869 20.8262 6.7609 20.3992C6.17312 19.9721 6.56498 18.7661 7.34869 16.3541L7.69172 15.2984C7.90833 14.6317 8.01664 14.2984 7.91623 13.9894C7.81582 13.6803 7.53227 13.4743 6.96517 13.0623L6.06712 12.4098C4.01533 10.9191 2.98943 10.1738 3.21395 9.48278C3.43846 8.7918 4.70654 8.7918 7.24269 8.7918H8.35275C9.05372 8.7918 9.40421 8.7918 9.66707 8.60081C9.92994 8.40983 10.0382 8.0765 10.2549 7.40983L10.5979 6.3541Z" fill="#FF9900"/>
<path d="M42.5979 6.3541C43.3816 3.94208 43.7735 2.73607 44.5 2.73607C45.2265 2.73607 45.6184 3.94208 46.4021 6.3541L46.7451 7.40983C46.9618 8.0765 47.0701 8.40983 47.3329 8.60081C47.5958 8.7918 47.9463 8.7918 48.6473 8.7918H49.7573C52.2935 8.7918 53.5615 8.7918 53.7861 9.48278C54.0106 10.1738 52.9847 10.9191 50.9329 12.4098L50.0348 13.0623C49.4677 13.4743 49.1842 13.6803 49.0838 13.9894C48.9834 14.2984 49.0917 14.6317 49.3083 15.2984L49.6513 16.3541C50.435 18.7661 50.8269 19.9721 50.2391 20.3992C49.6513 20.8262 48.6254 20.0809 46.5736 18.5902L45.6756 17.9377C45.1085 17.5257 44.8249 17.3197 44.5 17.3197C44.1751 17.3197 43.8915 17.5257 43.3244 17.9377L42.4264 18.5902C40.3746 20.0809 39.3487 20.8262 38.7609 20.3992C38.1731 19.9721 38.565 18.7661 39.3487 16.3541L39.6917 15.2984C39.9083 14.6317 40.0166 14.2984 39.9162 13.9894C39.8158 13.6803 39.5323 13.4743 38.9652 13.0623L38.0671 12.4098C36.0153 10.9191 34.9894 10.1738 35.2139 9.48278C35.4385 8.7918 36.7065 8.7918 39.2427 8.7918H40.3527C41.0537 8.7918 41.4042 8.7918 41.6671 8.60081C41.9299 8.40983 42.0382 8.0765 42.2549 7.40983L42.5979 6.3541Z" fill="#FF9900"/>
<path d="M74.5979 6.3541C75.3816 3.94208 75.7735 2.73607 76.5 2.73607C77.2265 2.73607 77.6184 3.94208 78.4021 6.3541L78.7451 7.40983C78.9618 8.0765 79.0701 8.40983 79.3329 8.60081C79.5958 8.7918 79.9463 8.7918 80.6473 8.7918H81.7573C84.2935 8.7918 85.5615 8.7918 85.7861 9.48278C86.0106 10.1738 84.9847 10.9191 82.9329 12.4098L82.0348 13.0623C81.4677 13.4743 81.1842 13.6803 81.0838 13.9894C80.9834 14.2984 81.0917 14.6317 81.3083 15.2984L81.6513 16.3541C82.435 18.7661 82.8269 19.9721 82.2391 20.3992C81.6513 20.8262 80.6254 20.0809 78.5736 18.5902L77.6756 17.9377C77.1085 17.5257 76.8249 17.3197 76.5 17.3197C76.1751 17.3197 75.8915 17.5257 75.3244 17.9377L74.4264 18.5902C72.3746 20.0809 71.3487 20.8262 70.7609 20.3992C70.1731 19.9721 70.565 18.7661 71.3487 16.3541L71.6917 15.2984C71.9083 14.6317 72.0166 14.2984 71.9162 13.9894C71.8158 13.6803 71.5323 13.4743 70.9652 13.0623L70.0671 12.4098C68.0153 10.9191 66.9894 10.1738 67.2139 9.48278C67.4385 8.7918 68.7065 8.7918 71.2427 8.7918H72.3527C73.0537 8.7918 73.4042 8.7918 73.6671 8.60081C73.9299 8.40983 74.0382 8.0765 74.2549 7.40983L74.5979 6.3541Z" fill="#FF9900"/>
<path d="M106.598 6.3541C107.382 3.94208 107.773 2.73607 108.5 2.73607C109.227 2.73607 109.618 3.94208 110.402 6.3541L110.745 7.40983C110.962 8.0765 111.07 8.40983 111.333 8.60081C111.596 8.7918 111.946 8.7918 112.647 8.7918H113.757C116.293 8.7918 117.562 8.7918 117.786 9.48278C118.011 10.1738 116.985 10.9191 114.933 12.4098L114.035 13.0623C113.468 13.4743 113.184 13.6803 113.084 13.9894C112.983 14.2984 113.092 14.6317 113.308 15.2984L113.651 16.3541C114.435 18.7661 114.827 19.9721 114.239 20.3992C113.651 20.8262 112.625 20.0809 110.574 18.5902L109.676 17.9377C109.108 17.5257 108.825 17.3197 108.5 17.3197C108.175 17.3197 107.892 17.5257 107.324 17.9377L106.426 18.5902C104.375 20.0809 103.349 20.8262 102.761 20.3992C102.173 19.9721 102.565 18.7661 103.349 16.3541L103.692 15.2984C103.908 14.6317 104.017 14.2984 103.916 13.9894C103.816 13.6803 103.532 13.4743 102.965 13.0623L102.067 12.4098C100.015 10.9191 98.9894 10.1738 99.2139 9.48278C99.4385 8.7918 100.707 8.7918 103.243 8.7918H104.353C105.054 8.7918 105.404 8.7918 105.667 8.60081C105.93 8.40983 106.038 8.0765 106.255 7.40983L106.598 6.3541Z" fill="#FF9900"/>
<path d="M138.598 6.3541C139.382 3.94208 139.773 2.73607 140.5 2.73607C141.227 2.73607 141.618 3.94208 142.402 6.3541L142.745 7.40983C142.962 8.0765 143.07 8.40983 143.333 8.60081C143.596 8.7918 143.946 8.7918 144.647 8.7918H145.757C148.293 8.7918 149.562 8.7918 149.786 9.48278C150.011 10.1738 148.985 10.9191 146.933 12.4098L146.035 13.0623C145.468 13.4743 145.184 13.6803 145.084 13.9894C144.983 14.2984 145.092 14.6317 145.308 15.2984L145.651 16.3541C146.435 18.7661 146.827 19.9721 146.239 20.3992C145.651 20.8262 144.625 20.0809 142.574 18.5902L141.676 17.9377C141.108 17.5257 140.825 17.3197 140.5 17.3197C140.175 17.3197 139.892 17.5257 139.324 17.9377L138.426 18.5902C136.375 20.0809 135.349 20.8262 134.761 20.3992C134.173 19.9721 134.565 18.7661 135.349 16.3541L135.692 15.2984C135.908 14.6317 136.017 14.2984 135.916 13.9894C135.816 13.6803 135.532 13.4743 134.965 13.0623L134.067 12.4098C132.015 10.9191 130.989 10.1738 131.214 9.48278C131.438 8.7918 132.707 8.7918 135.243 8.7918H136.353C137.054 8.7918 137.404 8.7918 137.667 8.60081C137.93 8.40983 138.038 8.0765 138.255 7.40983L138.598 6.3541Z" fill="#FF9900"/>
</svg>
