<svg width="100" height="100" viewBox="0 0 100 100" fill="none" xmlns="http://www.w3.org/2000/svg">
<circle cx="50" cy="50" r="50" fill="#EEE0FF" fill-opacity="0.5"/>
<path d="M54.1667 65.8333V62L56.3334 62.4167C58.7501 62.9167 61.0001 61.1667 61.1667 58.75L61.6667 53.3333L64.0834 52.3333C64.9167 52 65.2501 51 64.7501 50.1667L61.6667 45C61.1667 38.6667 57.5834 32.5 48.3334 32.5C38.8334 32.5 34.1667 39.5 34.1667 46.6667C34.1667 49.75 35.2501 52.4167 36.9167 54.6667C38.4167 56.75 39.1667 59.25 39.1667 61.75V65.75H54.1667V65.8333Z" fill="#D0D5DD"/>
<path d="M54.1666 65.8333V62L48.3333 60.8333V65.8333H54.1666Z" fill="#D0D5DD"/>
<path d="M57.9167 49.1667C58.6071 49.1667 59.1667 48.607 59.1667 47.9167C59.1667 47.2263 58.6071 46.6667 57.9167 46.6667C57.2264 46.6667 56.6667 47.2263 56.6667 47.9167C56.6667 48.607 57.2264 49.1667 57.9167 49.1667Z" fill="#101828"/>
<path d="M47.8334 32.5C40.2501 32.5 34.1667 38.5833 34.1667 46.1667C34.1667 55.4167 39.1667 55.6667 39.1667 61.6667L41.3334 60.9167C43.0834 60.3333 44.5834 59 45.2501 57.25L47.5834 51.5833L52.5001 49.1667V44.1667C52.5001 44.1667 58.3334 41 58.3334 35.5833C55.8334 33.5 51.4167 32.5 47.8334 32.5Z" fill="#48423E"/>
<path d="M47.5001 31.75C47.0001 31.75 46.6667 32.0833 46.6667 32.5833V44.1667C46.6667 44.6667 47.0001 45 47.5001 45C48.0001 45 48.3334 44.6667 48.3334 44.1667V32.5833C48.3334 32.0833 48.0001 31.75 47.5001 31.75ZM60.7501 56.5833C54.1667 56.5833 52.1667 52.5 52.0834 52.3333C51.9167 51.9167 51.4167 51.75 51.0001 51.9167C50.5834 52.0833 50.4167 52.5833 50.5834 53C50.6667 53.25 53.0834 58.25 60.7501 58.25C61.2501 58.25 61.5834 57.9167 61.5834 57.4167C61.5834 56.9167 61.1667 56.5833 60.7501 56.5833Z" fill="#546E7A"/>
<path d="M60.8334 59.1666C61.7539 59.1666 62.5001 58.4205 62.5001 57.5C62.5001 56.5795 61.7539 55.8333 60.8334 55.8333C59.9129 55.8333 59.1667 56.5795 59.1667 57.5C59.1667 58.4205 59.9129 59.1666 60.8334 59.1666Z" fill="#37474F"/>
<path d="M47.5001 55C50.7217 55 53.3334 52.3883 53.3334 49.1666C53.3334 45.945 50.7217 43.3333 47.5001 43.3333C44.2784 43.3333 41.6667 45.945 41.6667 49.1666C41.6667 52.3883 44.2784 55 47.5001 55Z" fill="#37474F"/>
<path d="M47.5001 52.5C49.341 52.5 50.8334 51.0076 50.8334 49.1666C50.8334 47.3257 49.341 45.8333 47.5001 45.8333C45.6591 45.8333 44.1667 47.3257 44.1667 49.1666C44.1667 51.0076 45.6591 52.5 47.5001 52.5Z" fill="#546E7A"/>
</svg>
