<svg width="117" height="38" viewBox="0 0 117 38" fill="none" xmlns="http://www.w3.org/2000/svg">
<g clip-path="url(#clip0_35_4163)">
<path d="M14.8015 13.8235V17.7175H24.2049C23.9552 19.8716 23.2063 21.5286 22.0413 22.6057C20.7098 23.9313 18.5462 25.4226 14.8015 25.4226C9.05963 25.4226 4.56598 20.783 4.56598 15.0662C4.56598 9.34955 8.97641 4.7099 14.8015 4.7099C17.8805 4.7099 20.2105 5.95266 21.8748 7.52683L24.621 4.79275C22.2909 2.55578 19.1287 0.815918 14.8015 0.815918C6.89602 0.815918 0.23877 7.19543 0.23877 15.0662C0.23877 22.9371 6.89602 29.3166 14.8015 29.3166C19.0455 29.3166 22.2909 27.9081 24.7874 25.3397C27.3671 22.7714 28.1992 19.1259 28.1992 16.2262C28.1992 15.3148 28.116 14.4863 28.0328 13.8235H14.8015Z" fill="#4285F4"/>
<path d="M39.8494 10.5923C34.7733 10.5923 30.5293 14.4863 30.5293 19.7887C30.5293 25.0912 34.6901 28.9852 39.8494 28.9852C45.0088 28.9852 49.1696 25.174 49.1696 19.8716C49.1696 14.4863 45.0088 10.5923 39.8494 10.5923ZM39.8494 25.4226C37.0201 25.4226 34.6069 23.1027 34.6069 19.8716C34.6069 16.5575 37.0201 14.3206 39.8494 14.3206C42.6788 14.3206 45.092 16.5575 45.092 19.8716C45.092 23.1027 42.6788 25.4226 39.8494 25.4226Z" fill="#EA4335"/>
<path d="M85.3685 12.6636H85.2021C84.2867 11.5865 82.5392 10.5923 80.2924 10.5923C75.6323 10.5923 71.6379 14.5691 71.6379 19.7887C71.6379 24.9255 75.6323 28.9852 80.2924 28.9852C82.5392 28.9852 84.2867 27.9909 85.2021 26.9139H85.3685V28.2395C85.3685 31.7192 83.4546 33.6248 80.4588 33.6248C77.9623 33.6248 76.4644 31.8849 75.7987 30.3108L72.3037 31.8021C73.3022 34.2048 76.0484 37.2702 80.542 37.2702C85.2853 37.2702 89.3629 34.4533 89.3629 27.6595V11.0894H85.5349V12.6636H85.3685ZM80.7084 25.4226C77.8791 25.4226 75.7987 23.0199 75.7987 19.8716C75.7987 16.6404 77.9623 14.3206 80.7084 14.3206C83.4546 14.3206 85.6182 16.7232 85.6182 19.9544C85.7014 23.1027 83.5378 25.4226 80.7084 25.4226Z" fill="#4285F4"/>
<path d="M60.5702 10.5923C55.494 10.5923 51.25 14.4863 51.25 19.7887C51.25 25.0912 55.4108 28.9852 60.5702 28.9852C65.7295 28.9852 69.8903 25.174 69.8903 19.8716C69.8903 14.4863 65.7295 10.5923 60.5702 10.5923ZM60.5702 25.4226C57.7408 25.4226 55.3276 23.1027 55.3276 19.8716C55.3276 16.5575 57.7408 14.3206 60.5702 14.3206C63.3995 14.3206 65.8127 16.5575 65.8127 19.8716C65.8127 23.1027 63.3995 25.4226 60.5702 25.4226Z" fill="#FBBC05"/>
<path d="M92.4417 1.23016H96.436V29.068H92.4417V1.23016Z" fill="#34A853"/>
<path d="M108.752 25.4226C106.671 25.4226 105.257 24.5112 104.258 22.6056L116.657 17.5517L116.241 16.4747C115.492 14.4034 113.079 10.5923 108.336 10.5923C103.592 10.5923 99.5981 14.3206 99.5981 19.7887C99.5981 24.9255 103.509 28.9852 108.752 28.9852C112.996 28.9852 115.409 26.4168 116.491 24.9255L113.329 22.8542C112.247 24.4284 110.832 25.4226 108.752 25.4226ZM108.502 14.072C110.167 14.072 111.581 14.9005 111.997 16.0604L103.676 19.5402C103.592 15.729 106.422 14.072 108.502 14.072Z" fill="#EA4335"/>
</g>
<defs>
<clipPath id="clip0_35_4163">
<rect width="116.419" height="36.4543" fill="white" transform="translate(0.23877 0.815918)"/>
</clipPath>
</defs>
</svg>
