<svg width="100" height="100" viewBox="0 0 100 100" fill="none" xmlns="http://www.w3.org/2000/svg">
<circle cx="50" cy="50" r="50" fill="#EEE0FF" fill-opacity="0.5"/>
<path d="M43.334 51.6666V37.4999C43.334 36.8369 43.5974 36.201 44.0662 35.7322C44.5351 35.2633 45.1709 34.9999 45.834 34.9999C46.497 34.9999 47.1329 35.2633 47.6018 35.7322C48.0706 36.201 48.334 36.8369 48.334 37.4999V49.9999M48.334 49.1666V45.8333C48.334 45.1702 48.5974 44.5343 49.0662 44.0655C49.5351 43.5967 50.1709 43.3333 50.834 43.3333C51.497 43.3333 52.1329 43.5967 52.6018 44.0655C53.0706 44.5343 53.334 45.1702 53.334 45.8333V49.9999M53.334 47.4999C53.334 46.8369 53.5974 46.201 54.0662 45.7322C54.5351 45.2633 55.1709 44.9999 55.834 44.9999C56.497 44.9999 57.1329 45.2633 57.6017 45.7322C58.0706 46.201 58.334 46.8369 58.334 47.4999V49.9999" stroke="#101828" stroke-width="2" stroke-linecap="round" stroke-linejoin="round"/>
<path d="M58.3333 49.1666C58.3333 48.5036 58.5967 47.8677 59.0656 47.3989C59.5344 46.93 60.1703 46.6666 60.8333 46.6666C61.4964 46.6666 62.1323 46.93 62.6011 47.3989C63.0699 47.8677 63.3333 48.5036 63.3333 49.1666V56.6666C63.3333 59.3188 62.2798 61.8624 60.4044 63.7377C58.529 65.6131 55.9855 66.6666 53.3333 66.6666H50H50.3467C48.6906 66.6669 47.0603 66.2559 45.6023 65.4705C44.1443 64.685 42.9042 63.5498 41.9933 62.1666L41.6667 61.6666C41.1467 60.8683 39.3217 57.6866 36.19 52.12C35.8707 51.5525 35.7855 50.8829 35.9523 50.2536C36.1191 49.6242 36.5249 49.0848 37.0833 48.75C37.6781 48.3931 38.3751 48.2452 39.0636 48.3297C39.7521 48.4143 40.3926 48.7264 40.8833 49.2166L43.3333 51.6666M38.3333 35L36.6667 33.3333M36.6667 41.6666H35M53.3333 35L55 33.3333M55 40H56.6667" stroke="#101828" stroke-width="2" stroke-linecap="round" stroke-linejoin="round"/>
</svg>
