<svg width="95" height="34" viewBox="0 0 95 34" fill="none" xmlns="http://www.w3.org/2000/svg">
<g clip-path="url(#clip0_35_4180)">
<path d="M64.049 25.3062C63.2977 26.3897 62.2207 27.203 60.9758 27.6273C59.7309 28.0515 58.3835 28.0642 57.1309 27.6636C55.8783 27.263 54.7862 26.4702 54.0148 25.4011C53.2433 24.3321 52.8329 23.043 52.8437 21.7227C52.8545 20.4025 53.2858 19.1203 54.0747 18.0641C54.8635 17.008 55.9683 16.2332 57.2273 15.8533C58.4863 15.4734 59.8334 15.5083 61.0712 15.953C62.309 16.3976 63.3725 17.2287 64.106 18.3244L68.6544 15.6272C67.33 13.5287 65.3635 11.9184 63.0502 11.0381C60.7368 10.1578 58.2016 10.055 55.8251 10.7452C53.4487 11.4353 51.3593 12.8812 49.8708 14.8657C48.3823 16.8501 47.575 19.266 47.5701 21.7506C47.5652 24.2352 48.363 26.6542 49.8437 28.6446C51.3244 30.6349 53.4081 32.0891 55.7818 32.7887C58.1555 33.4883 60.6912 33.3955 63.0079 32.5244C65.3247 31.6532 67.2975 30.0507 68.6302 27.9575L64.049 25.3062ZM76.581 0.579834H71.3042V32.3696H76.5781V21.773C76.5781 20.1336 77.2266 18.5613 78.3809 17.402C79.5351 16.2427 81.1006 15.5915 82.733 15.5915C84.3653 15.5915 85.9308 16.2427 87.0851 17.402C88.2394 18.5613 88.8878 20.1336 88.8878 21.773V32.3696H94.1632V20.7423C94.1624 18.6971 93.5642 16.6972 92.4426 14.9902C91.321 13.2832 89.7254 11.9443 87.8535 11.1393C85.9816 10.3343 83.9156 10.0986 81.9117 10.4615C79.9077 10.8243 78.0537 11.7698 76.5796 13.1807L76.581 0.579834ZM39.6549 0.579834H34.3795V25.3048C34.3793 26.8307 34.8165 28.3244 35.6389 29.6074C36.4613 30.8905 37.6341 31.9086 39.0172 32.5401C40.4003 33.1716 41.9352 33.3898 43.4384 33.1687C44.9417 32.9476 46.3498 32.2964 47.4945 31.2931L44.9459 26.9497C44.6992 27.2628 44.3851 27.5158 44.0271 27.6896C43.6692 27.8634 43.2767 27.9535 42.8791 27.9532H42.2918C41.5926 27.9528 40.9221 27.6737 40.4276 27.1771C39.9332 26.6805 39.6552 26.0071 39.6549 25.3048V16.4747H44.9288V11.1764H39.6549V0.579834ZM28.2289 0.579834C27.4517 0.579834 26.7063 0.889935 26.1567 1.44192C25.6071 1.9939 25.2983 2.74255 25.2983 3.52318C25.2983 4.3038 25.6071 5.05245 26.1567 5.60443C26.7063 6.15642 27.4517 6.46652 28.2289 6.46652C29.0062 6.46652 29.7516 6.15642 30.3012 5.60443C30.8508 5.05245 31.1595 4.3038 31.1595 3.52318C31.1595 2.74255 30.8508 1.9939 30.3012 1.44192C29.7516 0.889935 29.0062 0.579834 28.2289 0.579834ZM30.8659 32.3696V11.1764H25.592V32.3696H30.8659Z" fill="black"/>
<path fill-rule="evenodd" clip-rule="evenodd" d="M0.0917969 32.3696H5.36574V26.1881H10.2021C11.8763 26.1881 13.5341 25.8569 15.0808 25.2134C16.6275 24.5699 18.0329 23.6268 19.2168 22.4378C20.4006 21.2488 21.3396 19.8373 21.9803 18.2839C22.621 16.7304 22.9508 15.0654 22.9508 13.3839C22.9508 11.7025 22.621 10.0375 21.9803 8.48402C21.3396 6.93056 20.4006 5.51904 19.2168 4.33007C18.0329 3.1411 16.6275 2.19796 15.0808 1.55449C13.5341 0.911022 11.8763 0.579834 10.2021 0.579834L0.0917969 0.579834V32.3696ZM5.36574 5.87671H10.2021C12.1841 5.87671 14.085 6.66749 15.4865 8.07511C16.888 9.48272 17.6754 11.3918 17.6754 13.3825C17.6754 15.3732 16.888 17.2823 15.4865 18.6899C14.085 20.0975 12.1841 20.8883 10.2021 20.8883H5.36716L5.36574 5.87671Z" fill="black"/>
</g>
<defs>
<clipPath id="clip0_35_4180">
<rect width="94.0757" height="32.9265" fill="white" transform="translate(0.0917969 0.579834)"/>
</clipPath>
</defs>
</svg>
