<svg width="100" height="100" viewBox="0 0 100 100" fill="none" xmlns="http://www.w3.org/2000/svg">
<circle cx="50" cy="50" r="50" fill="#EEE0FF" fill-opacity="0.5"/>
<path d="M41.25 45C41.5885 45 41.8815 45.1237 42.1289 45.3711C42.3763 45.6185 42.5 45.9115 42.5 46.25C42.5 46.5885 42.3763 46.8815 42.1289 47.1289C41.8815 47.3763 41.5885 47.5 41.25 47.5C40.9115 47.5 40.6185 47.3763 40.3711 47.1289C40.1237 46.8815 40 46.5885 40 46.25C40 45.9115 40.1237 45.6185 40.3711 45.3711C40.6185 45.1237 40.9115 45 41.25 45ZM62.7734 38.6719C63.8672 39.1797 64.8568 39.8242 65.7422 40.6055C66.6276 41.3867 67.3893 42.2786 68.0273 43.2812C68.6654 44.2839 69.1536 45.3451 69.4922 46.4648C69.8307 47.5846 70 48.763 70 50C70 51.0286 69.8828 52.0312 69.6484 53.0078C69.4141 53.9844 69.082 54.9219 68.6523 55.8203C68.2227 56.7188 67.7018 57.5651 67.0898 58.3594C66.4779 59.1536 65.7812 59.8893 65 60.5664V63.75C65 64.2708 64.9023 64.7591 64.707 65.2148C64.5117 65.6706 64.2448 66.0677 63.9062 66.4062C63.5677 66.7448 63.1706 67.0117 62.7148 67.207C62.2591 67.4023 61.7708 67.5 61.25 67.5H58.75C58.3594 67.5 57.9818 67.4414 57.6172 67.3242C57.2526 67.207 56.9076 67.0378 56.582 66.8164C56.2565 66.5951 55.9831 66.3346 55.7617 66.0352C55.5404 65.7357 55.3581 65.3906 55.2148 65H49.7852C49.6549 65.3776 49.4727 65.7161 49.2383 66.0156C49.0039 66.3151 48.7305 66.582 48.418 66.8164C48.1055 67.0508 47.7669 67.2201 47.4023 67.3242C47.0378 67.4284 46.6536 67.487 46.25 67.5H43.75C43.2292 67.5 42.7409 67.4023 42.2852 67.207C41.8294 67.0117 41.4323 66.7448 41.0938 66.4062C40.7552 66.0677 40.4883 65.6706 40.293 65.2148C40.0977 64.7591 40 64.2708 40 63.75V62.1875C39.1146 61.9531 38.2812 61.6081 37.5 61.1523C36.7188 60.6966 36.0091 60.1497 35.3711 59.5117C34.7331 58.8737 34.1992 58.1641 33.7695 57.3828C33.3398 56.6016 33.0078 55.7617 32.7734 54.8633C32.3568 54.7591 31.9792 54.5898 31.6406 54.3555C31.3021 54.1211 31.0156 53.8477 30.7812 53.5352C30.5469 53.2227 30.3581 52.8646 30.2148 52.4609C30.0716 52.0573 30 51.6536 30 51.25V48.75C30 48.3073 30.0716 47.8841 30.2148 47.4805C30.3581 47.0768 30.5729 46.7057 30.8594 46.3672C31.1458 46.0286 31.4648 45.7487 31.8164 45.5273C32.168 45.306 32.5781 45.1497 33.0469 45.0586C34.0104 43.7044 35.0651 42.4414 36.2109 41.2695C37.3568 40.0977 38.6198 39.043 40 38.1055V31.1133L47.793 35H50.1953C50.3776 34.2708 50.6706 33.6003 51.0742 32.9883C51.4779 32.3763 51.9596 31.849 52.5195 31.4062C53.0794 30.9635 53.7044 30.6185 54.3945 30.3711C55.0846 30.1237 55.8073 30 56.5625 30C57.4609 30 58.3073 30.1693 59.1016 30.5078C59.8958 30.8464 60.5924 31.3151 61.1914 31.9141C61.7904 32.513 62.2591 33.2096 62.5977 34.0039C62.9362 34.7982 63.112 35.651 63.125 36.5625C63.125 37.2917 63.0078 37.9948 62.7734 38.6719ZM56.5625 32.5C56.0026 32.5 55.4753 32.6042 54.9805 32.8125C54.4857 33.0208 54.056 33.3138 53.6914 33.6914C53.3268 34.069 53.0404 34.4987 52.832 34.9805C52.6237 35.4622 52.513 35.9896 52.5 36.5625C52.5 37.0182 52.5651 37.4414 52.6953 37.832L59.375 39.4922C59.7656 39.1146 60.0716 38.6719 60.293 38.1641C60.5143 37.6562 60.625 37.1224 60.625 36.5625C60.625 36.0026 60.5208 35.4753 60.3125 34.9805C60.1042 34.4857 59.8112 34.056 59.4336 33.6914C59.056 33.3268 58.6263 33.0404 58.1445 32.832C57.6628 32.6237 57.1354 32.513 56.5625 32.5ZM62.5 59.4141C63.2422 58.8151 63.9193 58.1706 64.5312 57.4805C65.1432 56.7904 65.6706 56.0547 66.1133 55.2734C66.556 54.4922 66.8945 53.6654 67.1289 52.793C67.3633 51.9206 67.487 50.9896 67.5 50C67.5 49.0104 67.3568 48.0534 67.0703 47.1289C66.7839 46.2044 66.3802 45.3385 65.8594 44.5312C65.3385 43.724 64.7135 43.0143 63.9844 42.4023C63.2552 41.7904 62.4349 41.2695 61.5234 40.8398C61.3021 41.1133 61.0612 41.3607 60.8008 41.582C60.5404 41.8034 60.2539 42.0117 59.9414 42.207L50.918 39.9609C50.7227 39.5573 50.5469 39.1602 50.3906 38.7695C50.2344 38.3789 50.1237 37.9557 50.0586 37.5H47.207L42.5 35.1562V39.4141C41.5885 40.026 40.7682 40.6185 40.0391 41.1914C39.3099 41.7643 38.6328 42.3698 38.0078 43.0078C37.3828 43.6458 36.7839 44.3229 36.2109 45.0391C35.638 45.7552 35.0391 46.5755 34.4141 47.5C34.1927 47.5 33.9714 47.5065 33.75 47.5195C33.5286 47.5326 33.3203 47.5846 33.125 47.6758C32.9297 47.7669 32.7799 47.8906 32.6758 48.0469C32.5716 48.2031 32.513 48.4375 32.5 48.75V51.25C32.5 51.5885 32.6237 51.8815 32.8711 52.1289C33.1185 52.3763 33.4115 52.5 33.75 52.5H35C35 53.5417 35.1953 54.5117 35.5859 55.4102C35.9766 56.3086 36.5104 57.1029 37.1875 57.793C37.8646 58.4831 38.6589 59.0234 39.5703 59.4141C40.4818 59.8047 41.4583 60 42.5 60V63.75C42.5 64.0885 42.6237 64.3815 42.8711 64.6289C43.1185 64.8763 43.4115 65 43.75 65H46.25C46.5885 65 46.8815 64.8763 47.1289 64.6289C47.3763 64.3815 47.5 64.0885 47.5 63.75V62.5H57.5V63.2812C57.5 63.5677 57.526 63.8411 57.5781 64.1016C57.6302 64.362 57.7474 64.5768 57.9297 64.7461C58.112 64.9154 58.3854 65 58.75 65H61.25C61.5885 65 61.8815 64.8763 62.1289 64.6289C62.3763 64.3815 62.5 64.0885 62.5 63.75V59.4141Z" fill="#1E293B"/>
</svg>
