<svg width="112" height="54" viewBox="0 0 112 54" fill="none" xmlns="http://www.w3.org/2000/svg">
<path fill-rule="evenodd" clip-rule="evenodd" d="M99.116 27.5543C99.116 21.4658 96.1716 16.6616 90.544 16.6616C84.8927 16.6616 81.4734 21.4658 81.4734 27.5068C81.4734 34.6655 85.51 38.2805 91.3038 38.2805C94.1295 38.2805 96.2666 37.6384 97.8812 36.7346V31.978C96.2666 32.7866 94.4144 33.2861 92.0637 33.2861C89.7604 33.2861 87.7183 32.4774 87.4571 29.671H99.0685C99.0685 29.3618 99.116 28.1251 99.116 27.5543ZM87.3859 25.2949C87.3859 22.6074 89.0243 21.4896 90.5203 21.4896C91.9687 21.4896 93.5121 22.6074 93.5121 25.2949H87.3859Z" fill="#635BFF"/>
<path fill-rule="evenodd" clip-rule="evenodd" d="M72.3075 16.6616C69.9805 16.6616 68.4845 17.7556 67.6534 18.5167L67.3448 17.0422H62.1208V44.7733L68.0571 43.5128L68.0809 36.7822C68.9357 37.4006 70.1942 38.2805 72.2837 38.2805C76.5341 38.2805 80.4046 34.8558 80.4046 27.3165C80.3808 20.4194 76.4629 16.6616 72.3075 16.6616ZM70.8828 33.0482C69.4818 33.0482 68.6507 32.5488 68.0809 31.9304L68.0571 23.1069C68.6745 22.4172 69.5293 21.9415 70.8828 21.9415C73.0436 21.9415 74.5395 24.3674 74.5395 27.483C74.5395 30.6699 73.0673 33.0482 70.8828 33.0482Z" fill="#635BFF"/>
<path fill-rule="evenodd" clip-rule="evenodd" d="M53.9521 15.2585L59.9122 13.9742V9.14618L53.9521 10.4067V15.2585Z" fill="#635BFF"/>
<path d="M59.9122 17.0659H53.9521V37.8762H59.9122V17.0659Z" fill="#635BFF"/>
<path fill-rule="evenodd" clip-rule="evenodd" d="M47.565 18.8259L47.1851 17.066H42.0562V37.8763H47.9924V23.7728C49.3934 21.9415 51.7679 22.2745 52.504 22.5361V17.066C51.7441 16.7806 48.966 16.2573 47.565 18.8259Z" fill="#635BFF"/>
<path fill-rule="evenodd" clip-rule="evenodd" d="M35.6925 11.905L29.8987 13.1417L29.875 32.192C29.875 35.7119 32.5107 38.3043 36.025 38.3043C37.9721 38.3043 39.3968 37.9476 40.1804 37.5195V32.6915C39.4205 33.0007 35.6688 34.0947 35.6688 30.5748V22.1317H40.1804V17.0659H35.6688L35.6925 11.905Z" fill="#635BFF"/>
<path fill-rule="evenodd" clip-rule="evenodd" d="M19.641 23.1069C19.641 22.1793 20.4009 21.8226 21.6594 21.8226C23.464 21.8226 25.7435 22.3696 27.5482 23.3447V17.7556C25.5773 16.9708 23.6302 16.6616 21.6594 16.6616C16.8391 16.6616 13.6335 19.1826 13.6335 23.3923C13.6335 29.9564 22.6567 28.91 22.6567 31.7402C22.6567 32.8342 21.7069 33.1909 20.3771 33.1909C18.4063 33.1909 15.8893 32.3823 13.8947 31.2883V36.9487C16.103 37.9 18.3351 38.3043 20.3771 38.3043C25.3161 38.3043 28.7117 35.8546 28.7117 31.5975C28.6879 24.5101 19.641 25.7706 19.641 23.1069Z" fill="#635BFF"/>
</svg>
