<svg width="100" height="100" viewBox="0 0 100 100" fill="none" xmlns="http://www.w3.org/2000/svg">
<circle cx="50" cy="50" r="50" fill="#EEE0FF" fill-opacity="0.5"/>
<path fill-rule="evenodd" clip-rule="evenodd" d="M37 34.5833C37 34.296 37.1141 34.0205 37.3173 33.8173C37.5205 33.6141 37.796 33.5 38.0833 33.5H61.9167C62.204 33.5 62.4795 33.6141 62.6827 33.8173C62.8859 34.0205 63 34.296 63 34.5833V35.6667H68.4167C68.704 35.6667 68.9795 35.7808 69.1827 35.984C69.3859 36.1871 69.5 36.4627 69.5 36.75V43.25C69.5 44.6866 68.9293 46.0643 67.9135 47.0802C66.8977 48.096 65.5199 48.6667 64.0833 48.6667H62.2601C60.5907 53.39 56.2693 56.861 51.0833 57.2889V63.8333H58.6667C58.954 63.8333 59.2295 63.9475 59.4327 64.1506C59.6359 64.3538 59.75 64.6294 59.75 64.9167V71.4167C59.75 71.704 59.6359 71.9795 59.4327 72.1827C59.2295 72.3859 58.954 72.5 58.6667 72.5H41.3333C41.046 72.5 40.7705 72.3859 40.5673 72.1827C40.3641 71.9795 40.25 71.704 40.25 71.4167V64.9167C40.25 64.6294 40.3641 64.3538 40.5673 64.1506C40.7705 63.9475 41.046 63.8333 41.3333 63.8333H48.9167V57.2889C43.7318 56.861 39.4093 53.39 37.7399 48.6667H35.9167C34.4801 48.6667 33.1023 48.096 32.0865 47.0802C31.0707 46.0643 30.5 44.6866 30.5 43.25V36.75C30.5 36.4627 30.6141 36.1871 30.8173 35.984C31.0205 35.7808 31.296 35.6667 31.5833 35.6667H37V34.5833ZM60.8333 44.3333V35.6667H39.1667V44.3333C39.1667 50.3166 44.0168 55.1667 50 55.1667C55.9833 55.1667 60.8333 50.3166 60.8333 44.3333ZM63 37.8333V46.5H64.0833C64.9453 46.5 65.7719 46.1576 66.3814 45.5481C66.9909 44.9386 67.3333 44.112 67.3333 43.25V37.8333H63ZM32.6667 37.8333H37V46.5H35.9167C35.0547 46.5 34.2281 46.1576 33.6186 45.5481C33.0091 44.9386 32.6667 44.112 32.6667 43.25V37.8333ZM42.4167 66V70.3333H57.5833V66H42.4167Z" fill="black"/>
</svg>
