<svg width="79" height="81" viewBox="0 0 79 81" fill="none" xmlns="http://www.w3.org/2000/svg">
<g clip-path="url(#clip0_35_4186)">
<path d="M78.7612 0.0609131H0.560791V80.0253H78.7612V0.0609131Z" fill="#D71E28"/>
<path d="M47.8899 32.0337H46.6125L46.4736 32.6722C46.1219 34.2917 45.622 34.7914 44.4464 34.7914H41.9749V25.2412H43.6596V23.6588H37.8186V25.2412H39.3275V34.7914H37.8186V36.3738H47.8807V32.0337M11.7611 36.3738L8.63234 25.2412H7.21606V23.6588H13.0015V25.2412H11.3353L13.4088 32.9036L15.8988 23.6588H18.4537L20.99 32.9221L23.0357 25.2412H21.2955V23.6588H36.3561V27.7768H35.0787L34.9491 27.2863C34.5603 25.7594 34.153 25.2319 32.9589 25.2319H30.0153V29.0631H33.5883C33.7272 29.3685 33.7827 29.5906 33.7827 29.933C33.7827 30.2939 33.7272 30.5345 33.5883 30.8399H30.0153V34.7821H33.0885C34.2456 34.7821 34.7547 34.2732 35.1157 32.663L35.2545 32.0244H36.532V36.3646H25.859V34.7821H27.3679V25.2412H24.9148L21.8046 36.3738H19.3331L16.8152 27.1475L14.2234 36.3738H11.7611Z" fill="#FFCD41"/>
<path d="M70.4395 32.8296C70.4395 30.8307 69.2454 29.4518 67.0145 28.9243L64.7559 28.3969C63.4414 28.0915 62.8953 27.564 62.8953 26.6756C62.8953 25.6021 63.7284 24.9358 65.3668 24.9358C66.996 24.9358 67.9587 25.5374 68.3289 26.9532L68.4863 27.5732H69.7637V24.4361C68.3289 23.6958 66.8016 23.3071 65.2557 23.3071C62.2195 23.3071 60.2664 24.797 60.2664 27.1938C60.2664 29.0446 61.4049 30.405 63.5895 30.8955L65.8389 31.4044C67.2737 31.7283 67.8106 32.3113 67.8106 33.2738C67.8106 34.449 66.9404 35.1061 65.2002 35.1061C63.2285 35.1061 62.2195 34.3102 61.7752 32.7833L61.5438 32.0059H60.2664V35.5595C61.8863 36.3739 63.4229 36.744 65.5057 36.744C68.4863 36.7348 70.4395 35.2078 70.4395 32.8296ZM59.0723 32.0337H57.7948L57.656 32.6722C57.3042 34.2917 56.8044 34.8007 55.638 34.8007H53.1665V25.2412H54.8512V23.6588H49.0103V25.2412H50.5191V34.7914H49.0103V36.3739H59.0815V32.0337" fill="#FFCD41"/>
<path d="M67.9491 49.2647C67.9491 46.0536 66.6532 44.1842 64.2557 44.1842C61.8582 44.1842 60.5623 46.0536 60.5623 49.2647C60.5623 52.4944 61.8397 54.3452 64.2557 54.3452C66.6717 54.3452 67.9491 52.4944 67.9491 49.2647ZM70.865 49.2647C70.865 53.2255 68.1158 56.0017 64.265 56.0017C60.4327 56.0017 57.665 53.2255 57.665 49.2647C57.665 45.3225 60.4512 42.5278 64.265 42.5278C68.0972 42.5278 70.865 45.3225 70.865 49.2647ZM50.9076 49.8477C50.9076 50.2086 50.9631 50.4492 51.102 50.7361H53.2125V53.9473C52.5183 54.2342 51.824 54.3637 51.1205 54.3637C48.5657 54.3637 47.2327 52.4944 47.2327 49.2647C47.2327 46.0351 48.5657 44.1657 50.9817 44.1657C52.6016 44.1657 53.5365 44.9801 54.0919 46.396L54.2863 46.9049H55.5637V43.6568C53.9623 42.8794 52.5275 42.5278 50.8613 42.5278C46.955 42.5278 44.3261 45.1929 44.3261 49.2832C44.3261 53.3828 46.8809 56.0017 50.8613 56.0017C52.4442 56.0017 54.0734 55.5482 55.8321 54.6598V48.9964H51.1112C50.9631 49.2832 50.9076 49.4961 50.9076 49.8477ZM40.1143 46.544C40.1143 45.2207 39.3182 44.5081 37.7168 44.5081H35.6248V48.5892H37.7168C39.2997 48.5892 40.1143 47.8489 40.1143 46.544ZM26.2108 50.2457L24.4705 45.4335L22.7303 50.2457H26.2108ZM43.5578 54.1971C43.6596 54.4007 43.7152 54.6321 43.7152 54.9375C43.7152 55.2429 43.6596 55.4835 43.5578 55.6778C43.169 55.7333 42.6692 55.7703 42.1693 55.7703C40.4475 55.7703 39.6144 55.0485 39.4201 53.355L39.346 52.7165C39.1331 50.8842 38.5499 50.1716 36.5968 50.1716H35.6248V54.0398H37.3095V55.6223H26.1367V54.0398H27.59L26.7754 51.7726H22.1564L21.3418 54.0398H22.8321V55.6223H18.1297V54.0398H19.3701L23.7207 42.9072H26.0812L30.5151 54.0398H32.9682V44.5081H31.4593V42.9257H38.5962C41.1325 42.9257 42.7895 44.212 42.7895 46.2849C42.7895 48.3393 41.1418 49.422 39.5404 49.4961V49.5516C41.1603 49.6812 41.8175 50.6066 41.9749 52.0409L42.049 52.7165C42.1508 53.7715 42.3729 54.2434 43.1875 54.2434C43.3264 54.2342 43.456 54.2157 43.5578 54.1971ZM16.5005 44.5081C17.6946 44.5081 18.1019 45.0356 18.4907 46.5625L18.6203 47.053H19.8977V42.935H9.18774V44.5174H10.6966V54.0676H9.18774V55.65H15.1213V54.0676H13.344V50.366H17.0004C17.1392 50.0606 17.1948 49.82 17.1948 49.4591C17.1948 49.1167 17.1392 48.8946 17.0004 48.5892H13.344V44.5266H16.5005" fill="#FFCD41"/>
</g>
<defs>
<clipPath id="clip0_35_4186">
<rect width="78.2004" height="79.9643" fill="white" transform="translate(0.560791 0.0609131)"/>
</clipPath>
</defs>
</svg>
