<svg width="913" height="340" viewBox="0 0 913 340" fill="none" xmlns="http://www.w3.org/2000/svg">
<path d="M913 430C913 315.957 864.905 206.585 779.294 125.944C693.684 45.3035 577.571 8.61001e-06 456.5 0C335.429 -8.61001e-06 219.316 45.3034 133.706 125.944C48.0954 206.585 1.82813e-05 315.957 0 430H105.467C105.467 342.305 142.451 258.201 208.282 196.191C274.114 134.181 363.4 99.3447 456.5 99.3447C549.6 99.3447 638.886 134.181 704.718 196.191C770.549 258.201 807.533 342.305 807.533 430H913Z" fill="#A5FECB" fill-opacity="0.2"/>
<path d="M735 460C735 386.005 705.605 315.04 653.283 262.717C600.96 210.395 529.995 181 456 181C382.005 181 311.04 210.395 258.717 262.717C206.395 315.04 177 386.005 177 460H218.126C218.126 396.912 243.188 336.408 287.798 291.798C332.408 247.188 392.912 222.126 456 222.126C519.088 222.126 579.592 247.188 624.202 291.798C668.812 336.408 693.874 396.912 693.874 460H735Z" fill="#7600BE" fill-opacity="0.1"/>
</svg>
