<svg width="863" height="228" viewBox="0 0 863 228" fill="none" xmlns="http://www.w3.org/2000/svg">
<g clip-path="url(#clip0_17_15363)" filter="url(#filter0_d_17_15363)">
<rect width="951.045" height="32.2935" transform="translate(10.5977 0.362671) rotate(11.4372)" fill="#A5FECB"/>
<path d="M10.0089 17.466L12.0584 17.8806L11.6485 14.7764L11.6264 14.7719L10.0089 17.466ZM11.1567 12.6473L12.9403 13.0082L14.298 21.5165L12.4922 21.1512L12.2503 19.2687L9.29243 18.6703L8.31568 20.3062L6.56531 19.9521L11.1567 12.6473ZM16.5803 13.7446L18.3196 14.0964L17.0152 20.544L20.8704 21.324L20.5746 22.7863L14.9801 21.6545L16.5803 13.7446ZM23.1472 15.0731L24.8865 15.425L23.5821 21.8726L27.4374 22.6525L27.1415 24.1149L21.547 22.983L23.1472 15.0731ZM33.8698 22.2703L31.9444 16.8529L33.8942 17.2474L35.1123 20.7457L37.5833 17.9937L39.522 18.3859L35.6001 22.6664L34.986 25.7019L33.2467 25.35L33.8698 22.2703ZM40.7756 22.791C40.7084 23.1233 40.6796 23.4558 40.6892 23.7883C40.7077 24.1149 40.7764 24.421 40.8955 24.7064C41.0146 24.9919 41.195 25.2398 41.4369 25.4502C41.6803 25.6532 41.9977 25.7943 42.3892 25.8735C42.7806 25.9527 43.1279 25.9461 43.431 25.8536C43.7357 25.7538 43.9983 25.5955 44.219 25.3788C44.4397 25.1621 44.6183 24.9061 44.7549 24.6108C44.9004 24.3097 45.0068 23.9929 45.074 23.6606C45.1442 23.3135 45.1716 22.9692 45.1561 22.6278C45.148 22.2879 45.0844 21.9752 44.9653 21.6897C44.8478 21.3969 44.6673 21.1489 44.4239 20.946C44.182 20.7356 43.8654 20.5908 43.4739 20.5116C43.0825 20.4324 42.7345 20.4427 42.4298 20.5425C42.1267 20.6349 41.864 20.7932 41.6418 21.0174C41.4212 21.2341 41.2374 21.4967 41.0904 21.8053C40.9508 22.1153 40.8459 22.4439 40.7756 22.791ZM39.0363 22.4391C39.1559 21.8483 39.3551 21.3197 39.6339 20.8533C39.9143 20.3796 40.2587 19.988 40.6673 19.6785C41.0758 19.3691 41.5418 19.1559 42.0652 19.0388C42.596 18.9233 43.1642 18.9267 43.7698 19.0493C44.3828 19.1733 44.9076 19.3909 45.3444 19.7022C45.7811 20.0135 46.1275 20.3911 46.3837 20.835C46.6398 21.2789 46.805 21.7736 46.8791 22.3191C46.9548 22.8572 46.9328 23.4216 46.8133 24.0125C46.6968 24.5885 46.4991 25.1097 46.2202 25.5761C45.9428 26.0351 45.6006 26.4156 45.1936 26.7176C44.7865 27.0197 44.3213 27.2292 43.7979 27.3463C43.276 27.4559 42.7086 27.4488 42.0956 27.3247C41.4899 27.2022 40.9643 26.9883 40.5187 26.6828C40.082 26.3715 39.7348 25.9976 39.4772 25.5611C39.2195 25.1246 39.0521 24.641 38.975 24.1103C38.8993 23.5722 38.9198 23.0152 39.0363 22.4391ZM54.5274 26.5418C54.3108 27.6127 53.8503 28.3498 53.146 28.7531C52.4431 29.1491 51.5637 29.2403 50.5075 29.0266C49.4366 28.8099 48.6581 28.3833 48.1718 27.7468C47.6929 27.1118 47.5626 26.2551 47.7807 25.1768L48.7758 20.2581L50.5151 20.61L49.52 25.5287C49.4767 25.7429 49.4526 25.9571 49.4477 26.1714C49.4428 26.3857 49.4829 26.586 49.5682 26.7724C49.655 26.9514 49.7914 27.1135 49.9772 27.2587C50.172 27.3981 50.4466 27.5036 50.8011 27.5753C51.4215 27.7008 51.8775 27.6509 52.1691 27.4254C52.4623 27.1926 52.6686 26.7807 52.7881 26.1899L53.7832 21.2711L55.5225 21.623L54.5274 26.5418ZM60.1038 22.5498L61.832 22.8995L64.0597 28.8739L64.0819 28.8784L65.1555 23.5719L66.784 23.9013L65.1837 31.8112L63.4444 31.4594L61.2255 25.4983L61.2033 25.4938L60.132 30.7892L58.5035 30.4597L60.1038 22.5498ZM68.3151 24.2111L74.2309 25.4079L73.9351 26.8703L69.7586 26.0253L69.4156 27.7203L73.2487 28.4958L72.9753 29.8473L69.1422 29.0718L68.75 31.0105L73.0151 31.8734L72.7193 33.3358L66.7149 32.121L68.3151 24.2111ZM75.4987 25.6644L81.4145 26.8612L81.1187 28.3236L76.9421 27.4786L76.5992 29.1736L80.4323 29.9491L80.1589 31.3006L76.3258 30.5252L75.9336 32.4639L80.1987 33.3267L79.9029 34.7891L73.8984 33.5743L75.4987 25.6644ZM83.1172 33.9172L84.6681 34.231C84.9192 34.2818 85.1712 34.2904 85.4239 34.257C85.6767 34.2236 85.9141 34.1332 86.1361 33.986C86.3596 33.8313 86.5573 33.6137 86.7294 33.3334C86.9014 33.053 87.0315 32.6949 87.1197 32.2591C87.2004 31.8603 87.2322 31.4939 87.2152 31.1599C87.2071 30.82 87.1376 30.5176 87.0067 30.2528C86.8757 29.988 86.6745 29.7666 86.403 29.5887C86.1404 29.4049 85.7949 29.2696 85.3665 29.183L84.1257 28.9319L83.1172 33.9172ZM82.6823 27.1177L86.0944 27.808C86.604 27.9111 87.0602 28.088 87.4631 28.3386C87.8734 28.5908 88.2044 28.9114 88.4563 29.3007C88.7155 29.6914 88.8844 30.1484 88.963 30.6717C89.0491 31.1965 89.0256 31.7875 88.8926 32.4448C88.7761 33.0209 88.5946 33.5377 88.3483 33.9953C88.102 34.4529 87.7915 34.8283 87.417 35.1215C87.0499 35.4162 86.6201 35.6214 86.1278 35.7371C85.6443 35.8468 85.0998 35.8405 84.4941 35.7179L81.082 35.0276L82.6823 27.1177ZM89.5499 34.9649L91.2892 35.3168L90.944 37.0228C90.8932 37.2739 90.7989 37.4932 90.6611 37.6806C90.5291 37.8768 90.3699 38.0368 90.1834 38.1605C89.9969 38.2842 89.7869 38.3724 89.5533 38.4251C89.3256 38.4867 89.0898 38.512 88.846 38.5011L89.0074 37.7035C89.1227 37.7037 89.235 37.6803 89.3445 37.6333C89.4613 37.5877 89.5664 37.5244 89.6597 37.4434C89.7515 37.3697 89.8278 37.2775 89.8886 37.1668C89.9479 37.0635 89.9859 36.952 90.0024 36.8323L89.2048 36.671L89.5499 34.9649ZM102.993 39.4605L101.265 39.1109L101.014 33.4556L100.992 33.4512L98.5841 38.5685L96.8226 38.2121L96.3291 29.8786L98.0684 30.2305L98.231 35.8678L98.2531 35.8723L100.716 30.7662L102.345 31.0956L102.593 36.8196L102.616 36.8241L105.014 31.6358L106.721 31.9809L102.993 39.4605ZM107.522 32.1431L109.261 32.4949L108.647 35.5304L111.849 36.1781L112.463 33.1427L114.202 33.4945L112.602 41.4044L110.863 41.0526L111.553 37.6405L108.351 36.9927L107.661 40.4048L105.922 40.053L107.522 32.1431ZM116.746 39.06L118.795 39.4747L118.385 36.3704L118.363 36.366L116.746 39.06ZM117.894 34.2414L119.677 34.6022L121.035 43.1105L119.229 42.7452L118.987 40.8627L116.029 40.2643L115.053 41.9002L113.302 41.5461L117.894 34.2414ZM123.755 36.9493L121.384 36.4697L121.68 35.0074L128.161 36.3185L127.865 37.7808L125.494 37.3012L124.19 43.7488L122.45 43.3969L123.755 36.9493ZM133.228 42.3716L131.303 36.9542L133.253 37.3487L134.471 40.8471L136.942 38.095L138.881 38.4873L134.959 42.7678L134.344 45.8032L132.605 45.4513L133.228 42.3716ZM140.134 42.8923C140.067 43.2246 140.038 43.5571 140.048 43.8896C140.066 44.2162 140.135 44.5223 140.254 44.8078C140.373 45.0932 140.554 45.3412 140.795 45.5515C141.039 45.7545 141.356 45.8956 141.748 45.9748C142.139 46.054 142.486 46.0474 142.79 45.955C143.094 45.8552 143.357 45.6969 143.577 45.4801C143.798 45.2634 143.977 45.0074 144.113 44.7121C144.259 44.411 144.365 44.0943 144.433 43.7619C144.503 43.4148 144.53 43.0705 144.515 42.7291C144.506 42.3892 144.443 42.0765 144.324 41.7911C144.206 41.4982 144.026 41.2503 143.782 41.0473C143.541 40.8369 143.224 40.6921 142.832 40.6129C142.441 40.5337 142.093 40.544 141.788 40.6439C141.485 40.7363 141.223 40.8946 141 41.1187C140.78 41.3354 140.596 41.5981 140.449 41.9066C140.309 42.2166 140.204 42.5452 140.134 42.8923ZM138.395 42.5404C138.514 41.9496 138.714 41.421 138.992 40.9546C139.273 40.4809 139.617 40.0893 140.026 39.7799C140.434 39.4705 140.9 39.2572 141.424 39.1402C141.954 39.0246 142.523 39.0281 143.128 39.1506C143.741 39.2746 144.266 39.4923 144.703 39.8036C145.14 40.1149 145.486 40.4925 145.742 40.9364C145.998 41.3803 146.163 41.8749 146.238 42.4204C146.313 42.9585 146.291 43.5229 146.172 44.1138C146.055 44.6899 145.858 45.2111 145.579 45.6774C145.301 46.1364 144.959 46.5169 144.552 46.8189C144.145 47.121 143.68 47.3305 143.156 47.4476C142.634 47.5573 142.067 47.5501 141.454 47.4261C140.848 47.3036 140.323 47.0896 139.877 46.7842C139.44 46.4729 139.093 46.099 138.836 45.6625C138.578 45.2259 138.411 44.7423 138.333 44.2116C138.258 43.6736 138.278 43.1165 138.395 42.5404ZM153.886 46.6431C153.669 47.714 153.209 48.4511 152.504 48.8545C151.802 49.2504 150.922 49.3416 149.866 49.1279C148.795 48.9113 148.017 48.4847 147.53 47.8481C147.051 47.2131 146.921 46.3565 147.139 45.2782L148.134 40.3594L149.874 40.7113L148.879 45.6301C148.835 45.8442 148.811 46.0585 148.806 46.2727C148.801 46.487 148.841 46.6873 148.927 46.8737C149.014 47.0527 149.15 47.2148 149.336 47.3601C149.53 47.4994 149.805 47.6049 150.16 47.6767C150.78 47.8022 151.236 47.7522 151.528 47.5267C151.821 47.2939 152.027 46.8821 152.147 46.2912L153.142 41.3725L154.881 41.7243L153.886 46.6431ZM165.395 52.0851L163.667 51.7355L163.416 46.0803L163.394 46.0758L160.986 51.1931L159.225 50.8368L158.731 42.5032L160.47 42.8551L160.633 48.4924L160.655 48.4969L163.118 43.3908L164.747 43.7203L164.995 49.4442L165.018 49.4487L167.416 44.2604L169.123 44.6056L165.395 52.0851ZM170.666 49.9687L172.715 50.3833L172.305 47.2791L172.283 47.2746L170.666 49.9687ZM171.814 45.15L173.597 45.5108L174.955 54.0192L173.149 53.6538L172.907 51.7714L169.949 51.173L168.973 52.8089L167.222 52.4548L171.814 45.15ZM177.237 46.2473L178.966 46.5969L181.193 52.5713L181.215 52.5758L182.289 47.2693L183.918 47.5987L182.317 55.5086L180.578 55.1568L178.359 49.1957L178.337 49.1912L177.266 54.4866L175.637 54.1572L177.237 46.2473ZM186.903 49.725L184.532 49.2453L184.828 47.783L191.309 49.0941L191.013 50.5565L188.642 50.0768L187.338 56.5244L185.599 56.1725L186.903 49.725Z" fill="#181818"/>
<path d="M227.449 55.2358L230.612 54.7159L230.901 56.804L227.713 57.1871L229.085 60.0477L227.162 60.9504L225.816 57.9631L223.516 60.2127L222.071 58.6287L224.446 56.5262L221.709 54.9444L222.787 53.1329L225.423 54.826L226.063 51.6608L228.089 52.0706L227.449 55.2358Z" fill="#181818"/>
<path d="M240.279 64.0523L242.329 64.4669L241.919 61.3627L241.897 61.3582L240.279 64.0523ZM241.427 59.2336L243.211 59.5945L244.568 68.1028L242.762 67.7375L242.521 65.855L239.563 65.2566L238.586 66.8925L236.836 66.5384L241.427 59.2336ZM246.851 60.3309L248.59 60.6827L247.285 67.1303L251.141 67.9103L250.845 69.3726L245.25 68.2408L246.851 60.3309ZM253.418 61.6594L255.157 62.0113L253.852 68.4589L257.708 69.2388L257.412 70.7012L251.817 69.5693L253.418 61.6594ZM264.14 68.8566L262.215 63.4392L264.164 63.8337L265.383 67.332L267.854 64.58L269.792 64.9722L265.87 69.2527L265.256 72.2882L263.517 71.9363L264.14 68.8566ZM271.046 69.3773C270.979 69.7096 270.95 70.0421 270.959 70.3746C270.978 70.7012 271.047 71.0073 271.166 71.2927C271.285 71.5782 271.465 71.8261 271.707 72.0365C271.951 72.2395 272.268 72.3806 272.659 72.4598C273.051 72.539 273.398 72.5324 273.701 72.4399C274.006 72.3401 274.269 72.1819 274.489 71.9651C274.71 71.7484 274.889 71.4924 275.025 71.1971C275.171 70.896 275.277 70.5792 275.344 70.2469C275.414 69.8998 275.442 69.5555 275.426 69.2141C275.418 68.8742 275.355 68.5615 275.236 68.276C275.118 67.9832 274.938 67.7352 274.694 67.5323C274.452 67.3219 274.136 67.1771 273.744 67.0979C273.353 67.0187 273.005 67.029 272.7 67.1288C272.397 67.2213 272.134 67.3795 271.912 67.6037C271.691 67.8204 271.508 68.083 271.361 68.3916C271.221 68.7016 271.116 69.0302 271.046 69.3773ZM269.307 69.0254C269.426 68.4346 269.625 67.906 269.904 67.4396C270.185 66.9659 270.529 66.5743 270.938 66.2648C271.346 65.9554 271.812 65.7422 272.335 65.6251C272.866 65.5096 273.434 65.513 274.04 65.6356C274.653 65.7596 275.178 65.9772 275.615 66.2885C276.051 66.5998 276.398 66.9774 276.654 67.4213C276.91 67.8652 277.075 68.3599 277.149 68.9054C277.225 69.4435 277.203 70.0079 277.084 70.5988C276.967 71.1748 276.769 71.696 276.49 72.1624C276.213 72.6214 275.871 73.0019 275.464 73.3039C275.057 73.606 274.592 73.8155 274.068 73.9326C273.546 74.0422 272.979 74.0351 272.366 73.9111C271.76 73.7885 271.235 73.5746 270.789 73.2692C270.352 72.9578 270.005 72.5839 269.747 72.1474C269.49 71.7109 269.322 71.2273 269.245 70.6966C269.17 70.1585 269.19 69.6015 269.307 69.0254ZM284.798 73.1281C284.581 74.199 284.121 74.9361 283.416 75.3394C282.713 75.7354 281.834 75.8266 280.778 75.6129C279.707 75.3962 278.928 74.9696 278.442 74.3331C277.963 73.6981 277.833 72.8414 278.051 71.7631L279.046 66.8444L280.785 67.1963L279.79 72.115C279.747 72.3292 279.723 72.5434 279.718 72.7577C279.713 72.972 279.753 73.1723 279.839 73.3587C279.925 73.5377 280.062 73.6998 280.248 73.845C280.442 73.9844 280.717 74.0899 281.071 74.1616C281.692 74.2871 282.148 74.2372 282.439 74.0117C282.733 73.7789 282.939 73.367 283.058 72.7762L284.054 67.8574L285.793 68.2093L284.798 73.1281ZM290.374 69.1361L292.102 69.4858L294.33 75.4602L294.352 75.4647L295.426 70.1582L297.054 70.4876L295.454 78.3975L293.715 78.0457L291.496 72.0846L291.474 72.0801L290.402 77.3755L288.774 77.0461L290.374 69.1361ZM298.585 70.7974L304.501 71.9942L304.205 73.4566L300.029 72.6116L299.686 74.3066L303.519 75.0821L303.246 76.4336L299.412 75.6581L299.02 77.5968L303.285 78.4597L302.99 79.9221L296.985 78.7073L298.585 70.7974ZM305.769 72.2507L311.685 73.4475L311.389 74.9099L307.212 74.0649L306.869 75.7599L310.703 76.5354L310.429 77.8869L306.596 77.1115L306.204 79.0502L310.469 79.913L310.173 81.3754L304.169 80.1606L305.769 72.2507ZM313.387 80.5035L314.938 80.8173C315.189 80.8681 315.441 80.8767 315.694 80.8433C315.947 80.8099 316.184 80.7195 316.406 80.5723C316.63 80.4176 316.828 80.2001 317 79.9197C317.172 79.6393 317.302 79.2812 317.39 78.8454C317.471 78.4466 317.502 78.0802 317.485 77.7462C317.477 77.4063 317.408 77.1039 317.277 76.8391C317.146 76.5743 316.945 76.3529 316.673 76.175C316.411 75.9912 316.065 75.8559 315.637 75.7693L314.396 75.5182L313.387 80.5035ZM312.953 73.704L316.365 74.3943C316.874 74.4974 317.331 74.6743 317.733 74.9249C318.144 75.1771 318.475 75.4978 318.727 75.887C318.986 76.2777 319.155 76.7347 319.233 77.258C319.319 77.7828 319.296 78.3738 319.163 79.0312C319.046 79.6072 318.865 80.124 318.619 80.5816C318.372 81.0392 318.062 81.4146 317.687 81.7078C317.32 82.0025 316.89 82.2077 316.398 82.3234C315.915 82.4332 315.37 82.4268 314.764 82.3042L311.352 81.6139L312.953 73.704ZM319.82 81.5512L321.559 81.9031L321.214 83.6091C321.164 83.8602 321.069 84.0795 320.931 84.2669C320.799 84.4631 320.64 84.6231 320.454 84.7468C320.267 84.8705 320.057 84.9587 319.824 85.0114C319.596 85.073 319.36 85.0983 319.116 85.0874L319.278 84.2898C319.393 84.29 319.505 84.2666 319.615 84.2196C319.732 84.174 319.837 84.1107 319.93 84.0297C320.022 83.956 320.098 83.8638 320.159 83.7531C320.218 83.6498 320.256 83.5383 320.273 83.4186L319.475 83.2573L319.82 81.5512ZM333.264 86.0468L331.535 85.6972L331.284 80.0419L331.262 80.0375L328.854 85.1548L327.093 84.7984L326.599 76.4649L328.339 76.8168L328.501 82.4541L328.523 82.4586L330.986 77.3525L332.615 77.6819L332.864 83.4059L332.886 83.4104L335.285 78.2221L336.991 78.5672L333.264 86.0468ZM337.792 78.7294L339.531 79.0812L338.917 82.1167L342.119 82.7644L342.733 79.729L344.472 80.0808L342.872 87.9908L341.133 87.6389L341.823 84.2268L338.622 83.579L337.931 86.9911L336.192 86.6393L337.792 78.7294ZM347.016 85.6463L349.065 86.061L348.656 82.9567L348.633 82.9523L347.016 85.6463ZM348.164 80.8277L349.947 81.1885L351.305 89.6968L349.499 89.3315L349.257 87.449L346.3 86.8506L345.323 88.4865L343.572 88.1324L348.164 80.8277ZM354.025 83.5356L351.654 83.056L351.95 81.5937L358.431 82.9048L358.135 84.3671L355.764 83.8875L354.46 90.3351L352.721 89.9832L354.025 83.5356ZM363.499 88.9579L361.573 83.5405L363.523 83.935L364.741 87.4334L367.212 84.6813L369.151 85.0736L365.229 89.3541L364.615 92.3895L362.875 92.0377L363.499 88.9579ZM370.404 89.4786C370.337 89.811 370.308 90.1434 370.318 90.4759C370.336 90.8025 370.405 91.1086 370.524 91.3941C370.643 91.6795 370.824 91.9275 371.066 92.1378C371.309 92.3408 371.626 92.4819 372.018 92.5611C372.409 92.6403 372.757 92.6337 373.06 92.5413C373.364 92.4415 373.627 92.2832 373.848 92.0664C374.068 91.8497 374.247 91.5937 374.384 91.2985C374.529 90.9973 374.636 90.6806 374.703 90.3482C374.773 90.0011 374.8 89.6568 374.785 89.3154C374.777 88.9755 374.713 88.6628 374.594 88.3774C374.477 88.0845 374.296 87.8366 374.053 87.6336C373.811 87.4232 373.494 87.2784 373.103 87.1992C372.711 87.12 372.363 87.1303 372.059 87.2302C371.755 87.3226 371.493 87.4809 371.271 87.705C371.05 87.9217 370.866 88.1844 370.719 88.4929C370.58 88.8029 370.475 89.1315 370.404 89.4786ZM368.665 89.1267C368.785 88.5359 368.984 88.0073 369.263 87.5409C369.543 87.0672 369.887 86.6756 370.296 86.3662C370.705 86.0568 371.171 85.8435 371.694 85.7265C372.225 85.6109 372.793 85.6144 373.399 85.7369C374.012 85.8609 374.536 86.0786 374.973 86.3899C375.41 86.7012 375.756 87.0788 376.012 87.5227C376.269 87.9666 376.434 88.4613 376.508 89.0067C376.584 89.5448 376.562 90.1093 376.442 90.7001C376.326 91.2762 376.128 91.7974 375.849 92.2637C375.572 92.7227 375.229 93.1032 374.822 93.4052C374.415 93.7073 373.95 93.9168 373.427 94.0339C372.905 94.1436 372.337 94.1364 371.724 94.0124C371.119 93.8899 370.593 93.6759 370.147 93.3705C369.711 93.0592 369.364 92.6853 369.106 92.2488C368.848 91.8122 368.681 91.3286 368.604 90.7979C368.528 90.2599 368.549 89.7028 368.665 89.1267ZM384.156 93.2294C383.94 94.3003 383.479 95.0374 382.775 95.4408C382.072 95.8367 381.192 95.9279 380.136 95.7142C379.065 95.4976 378.287 95.071 377.801 94.4345C377.322 93.7994 377.191 92.9428 377.409 91.8645L378.405 86.9457L380.144 87.2976L379.149 92.2164C379.105 92.4305 379.081 92.6448 379.076 92.859C379.072 93.0733 379.112 93.2736 379.197 93.46C379.284 93.639 379.42 93.8011 379.606 93.9464C379.801 94.0857 380.075 94.1912 380.43 94.263C381.05 94.3885 381.506 94.3385 381.798 94.113C382.091 93.8802 382.297 93.4684 382.417 92.8775L383.412 87.9588L385.151 88.3106L384.156 93.2294ZM395.665 98.6714L393.937 98.3218L393.686 92.6666L393.664 92.6621L391.256 97.7794L389.495 97.4231L389.001 89.0896L390.741 89.4414L390.903 95.0787L390.925 95.0832L393.388 89.9771L395.017 90.3066L395.266 96.0305L395.288 96.035L397.687 90.8467L399.393 91.1919L395.665 98.6714ZM400.936 96.555L402.986 96.9696L402.576 93.8654L402.554 93.8609L400.936 96.555ZM402.084 91.7363L403.868 92.0972L405.225 100.605L403.419 100.24L403.178 98.3577L400.22 97.7593L399.243 99.3952L397.493 99.0411L402.084 91.7363ZM407.508 92.8336L409.236 93.1832L411.464 99.1576L411.486 99.1621L412.559 93.8556L414.188 94.185L412.588 102.095L410.848 101.743L408.629 95.782L408.607 95.7775L407.536 101.073L405.907 100.743L407.508 92.8336ZM417.173 96.3113L414.803 95.8316L415.099 94.3693L421.579 95.6804L421.283 97.1428L418.913 96.6631L417.608 103.111L415.869 102.759L417.173 96.3113Z" fill="#181818"/>
<path d="M457.719 101.822L460.882 101.302L461.171 103.39L457.983 103.773L459.355 106.634L457.433 107.537L456.087 104.549L453.786 106.799L452.341 105.215L454.717 103.113L451.979 101.531L453.057 99.7192L455.693 101.412L456.334 98.2471L458.359 98.6569L457.719 101.822Z" fill="#181818"/>
<path d="M470.55 110.638L472.599 111.053L472.189 107.949L472.167 107.944L470.55 110.638ZM471.697 105.82L473.481 106.181L474.839 114.689L473.033 114.324L472.791 112.441L469.833 111.843L468.856 113.479L467.106 113.125L471.697 105.82ZM477.121 106.917L478.86 107.269L477.556 113.717L481.411 114.496L481.115 115.959L475.521 114.827L477.121 106.917ZM483.688 108.246L485.427 108.597L484.123 115.045L487.978 115.825L487.682 117.287L482.088 116.156L483.688 108.246ZM494.411 115.443L492.485 110.025L494.435 110.42L495.653 113.918L498.124 111.166L500.063 111.558L496.141 115.839L495.527 118.874L493.787 118.523L494.411 115.443ZM501.316 115.963C501.249 116.296 501.22 116.628 501.23 116.961C501.248 117.287 501.317 117.593 501.436 117.879C501.555 118.164 501.736 118.412 501.978 118.623C502.221 118.826 502.538 118.967 502.93 119.046C503.321 119.125 503.669 119.119 503.972 119.026C504.276 118.926 504.539 118.768 504.76 118.551C504.98 118.335 505.159 118.079 505.296 117.783C505.441 117.482 505.548 117.165 505.615 116.833C505.685 116.486 505.712 116.142 505.697 115.8C505.689 115.46 505.625 115.148 505.506 114.862C505.389 114.569 505.208 114.321 504.965 114.118C504.723 113.908 504.406 113.763 504.015 113.684C503.623 113.605 503.275 113.615 502.971 113.715C502.667 113.807 502.405 113.966 502.183 114.19C501.962 114.407 501.778 114.669 501.631 114.978C501.492 115.288 501.387 115.616 501.316 115.963ZM499.577 115.612C499.697 115.021 499.896 114.492 500.175 114.026C500.455 113.552 500.799 113.16 501.208 112.851C501.617 112.542 502.083 112.328 502.606 112.211C503.137 112.096 503.705 112.099 504.311 112.222C504.924 112.346 505.448 112.563 505.885 112.875C506.322 113.186 506.668 113.564 506.924 114.008C507.181 114.451 507.346 114.946 507.42 115.492C507.496 116.03 507.474 116.594 507.354 117.185C507.238 117.761 507.04 118.282 506.761 118.749C506.484 119.208 506.141 119.588 505.734 119.89C505.327 120.192 504.862 120.402 504.339 120.519C503.817 120.628 503.249 120.621 502.636 120.497C502.031 120.375 501.505 120.161 501.059 119.855C500.623 119.544 500.276 119.17 500.018 118.734C499.76 118.297 499.593 117.813 499.516 117.283C499.44 116.745 499.461 116.188 499.577 115.612ZM515.068 119.714C514.852 120.785 514.391 121.522 513.687 121.926C512.984 122.322 512.104 122.413 511.048 122.199C509.977 121.982 509.199 121.556 508.713 120.919C508.234 120.284 508.103 119.428 508.321 118.349L509.317 113.431L511.056 113.782L510.061 118.701C510.017 118.915 509.993 119.13 509.988 119.344C509.984 119.558 510.024 119.758 510.109 119.945C510.196 120.124 510.332 120.286 510.518 120.431C510.713 120.571 510.987 120.676 511.342 120.748C511.962 120.873 512.418 120.823 512.71 120.598C513.003 120.365 513.209 119.953 513.329 119.362L514.324 114.444L516.063 114.795L515.068 119.714ZM520.645 115.722L522.373 116.072L524.601 122.046L524.623 122.051L525.696 116.744L527.325 117.074L525.724 124.984L523.985 124.632L521.766 118.671L521.744 118.666L520.673 123.962L519.044 123.632L520.645 115.722ZM528.856 117.384L534.772 118.58L534.476 120.043L530.299 119.198L529.956 120.893L533.79 121.668L533.516 123.02L529.683 122.244L529.291 124.183L533.556 125.046L533.26 126.508L527.256 125.293L528.856 117.384ZM536.039 118.837L541.955 120.034L541.659 121.496L537.483 120.651L537.14 122.346L540.973 123.122L540.7 124.473L536.867 123.698L536.474 125.636L540.739 126.499L540.444 127.962L534.439 126.747L536.039 118.837ZM543.658 127.09L545.209 127.403C545.46 127.454 545.712 127.463 545.965 127.43C546.217 127.396 546.455 127.306 546.677 127.158C546.9 127.004 547.098 126.786 547.27 126.506C547.442 126.225 547.572 125.867 547.66 125.432C547.741 125.033 547.773 124.666 547.756 124.332C547.748 123.992 547.678 123.69 547.547 123.425C547.417 123.16 547.215 122.939 546.944 122.761C546.681 122.577 546.336 122.442 545.907 122.355L544.667 122.104L543.658 127.09ZM543.223 120.29L546.635 120.981C547.145 121.084 547.601 121.26 548.004 121.511C548.414 121.763 548.745 122.084 548.997 122.473C549.256 122.864 549.425 123.321 549.504 123.844C549.59 124.369 549.566 124.96 549.433 125.617C549.317 126.193 549.135 126.71 548.889 127.168C548.643 127.625 548.332 128.001 547.958 128.294C547.591 128.589 547.161 128.794 546.669 128.91C546.185 129.019 545.641 129.013 545.035 128.89L541.623 128.2L543.223 120.29ZM550.091 128.137L551.83 128.489L551.485 130.195C551.434 130.446 551.34 130.666 551.202 130.853C551.07 131.049 550.911 131.209 550.724 131.333C550.538 131.457 550.328 131.545 550.094 131.598C549.866 131.659 549.631 131.684 549.387 131.674L549.548 130.876C549.663 130.876 549.776 130.853 549.885 130.806C550.002 130.76 550.107 130.697 550.2 130.616C550.292 130.542 550.369 130.45 550.429 130.339C550.489 130.236 550.527 130.124 550.543 130.005L549.746 129.843L550.091 128.137ZM563.534 132.633L561.806 132.283L561.555 126.628L561.532 126.624L559.125 131.741L557.363 131.385L556.87 123.051L558.609 123.403L558.772 129.04L558.794 129.045L561.257 123.939L562.885 124.268L563.134 129.992L563.156 129.997L565.555 124.808L567.261 125.153L563.534 132.633ZM568.063 125.316L569.802 125.667L569.188 128.703L572.389 129.351L573.004 126.315L574.743 126.667L573.143 134.577L571.403 134.225L572.094 130.813L568.892 130.165L568.202 133.577L566.462 133.225L568.063 125.316ZM577.286 132.233L579.336 132.647L578.926 129.543L578.904 129.538L577.286 132.233ZM578.434 127.414L580.218 127.775L581.576 136.283L579.77 135.918L579.528 134.035L576.57 133.437L575.593 135.073L573.843 134.719L578.434 127.414ZM584.295 130.122L581.925 129.642L582.221 128.18L588.701 129.491L588.406 130.953L586.035 130.474L584.73 136.921L582.991 136.569L584.295 130.122ZM593.769 135.544L591.844 130.127L593.794 130.521L595.012 134.02L597.483 131.268L599.421 131.66L595.499 135.94L594.885 138.976L593.146 138.624L593.769 135.544ZM600.675 136.065C600.608 136.397 600.579 136.73 600.588 137.062C600.607 137.389 600.676 137.695 600.795 137.98C600.914 138.266 601.094 138.514 601.336 138.724C601.58 138.927 601.897 139.068 602.288 139.147C602.68 139.226 603.027 139.22 603.33 139.127C603.635 139.028 603.898 138.869 604.118 138.653C604.339 138.436 604.518 138.18 604.654 137.885C604.8 137.583 604.906 137.267 604.973 136.934C605.044 136.587 605.071 136.243 605.055 135.902C605.047 135.562 604.984 135.249 604.865 134.964C604.747 134.671 604.567 134.423 604.323 134.22C604.081 134.009 603.765 133.865 603.373 133.785C602.982 133.706 602.634 133.717 602.329 133.816C602.026 133.909 601.763 134.067 601.541 134.291C601.32 134.508 601.137 134.771 600.99 135.079C600.85 135.389 600.745 135.718 600.675 136.065ZM598.936 135.713C599.055 135.122 599.254 134.593 599.533 134.127C599.814 133.653 600.158 133.262 600.567 132.952C600.975 132.643 601.441 132.43 601.964 132.313C602.495 132.197 603.063 132.201 603.669 132.323C604.282 132.447 604.807 132.665 605.244 132.976C605.68 133.287 606.027 133.665 606.283 134.109C606.539 134.553 606.704 135.047 606.778 135.593C606.854 136.131 606.832 136.695 606.713 137.286C606.596 137.862 606.398 138.384 606.119 138.85C605.842 139.309 605.5 139.689 605.093 139.991C604.686 140.293 604.221 140.503 603.697 140.62C603.175 140.73 602.608 140.723 601.995 140.599C601.389 140.476 600.864 140.262 600.418 139.957C599.981 139.645 599.634 139.271 599.376 138.835C599.119 138.398 598.951 137.915 598.874 137.384C598.799 136.846 598.819 136.289 598.936 135.713ZM614.427 139.816C614.21 140.886 613.75 141.624 613.045 142.027C612.342 142.423 611.463 142.514 610.407 142.3C609.336 142.084 608.557 141.657 608.071 141.021C607.592 140.386 607.462 139.529 607.68 138.451L608.675 133.532L610.414 133.884L609.419 138.803C609.376 139.017 609.352 139.231 609.347 139.445C609.342 139.659 609.382 139.86 609.468 140.046C609.554 140.225 609.691 140.387 609.877 140.533C610.071 140.672 610.346 140.777 610.7 140.849C611.321 140.975 611.777 140.925 612.068 140.699C612.362 140.466 612.568 140.055 612.687 139.464L613.683 134.545L615.422 134.897L614.427 139.816ZM625.936 145.258L624.208 144.908L623.957 139.253L623.934 139.248L621.527 144.366L619.765 144.009L619.272 135.676L621.011 136.028L621.174 141.665L621.196 141.669L623.659 136.563L625.287 136.893L625.536 142.617L625.558 142.621L627.957 137.433L629.663 137.778L625.936 145.258ZM631.207 143.141L633.256 143.556L632.846 140.452L632.824 140.447L631.207 143.141ZM632.354 138.322L634.138 138.683L635.496 147.192L633.69 146.826L633.448 144.944L630.49 144.345L629.513 145.981L627.763 145.627L632.354 138.322ZM637.778 139.42L639.506 139.769L641.734 145.744L641.756 145.748L642.83 140.442L644.458 140.771L642.858 148.681L641.119 148.329L638.9 142.368L638.878 142.364L637.806 147.659L636.178 147.33L637.778 139.42ZM647.444 142.897L645.073 142.418L645.369 140.955L651.85 142.267L651.554 143.729L649.183 143.249L647.879 149.697L646.14 149.345L647.444 142.897Z" fill="#181818"/>
<path d="M687.99 148.408L691.152 147.888L691.442 149.976L688.254 150.36L689.626 153.22L687.703 154.123L686.357 151.136L684.057 153.385L682.611 151.801L684.987 149.699L682.25 148.117L683.328 146.305L685.964 147.998L686.604 144.833L688.63 145.243L687.99 148.408Z" fill="#181818"/>
<path d="M700.82 157.225L702.869 157.639L702.46 154.535L702.437 154.531L700.82 157.225ZM701.968 152.406L703.751 152.767L705.109 161.275L703.303 160.91L703.061 159.027L700.103 158.429L699.127 160.065L697.376 159.711L701.968 152.406ZM707.391 153.503L709.131 153.855L707.826 160.303L711.681 161.083L711.386 162.545L705.791 161.413L707.391 153.503ZM713.958 154.832L715.698 155.184L714.393 161.631L718.248 162.411L717.953 163.874L712.358 162.742L713.958 154.832ZM724.681 162.029L722.755 156.612L724.705 157.006L725.923 160.505L728.394 157.752L730.333 158.145L726.411 162.425L725.797 165.461L724.058 165.109L724.681 162.029ZM731.587 162.55C731.519 162.882 731.491 163.215 731.5 163.547C731.519 163.874 731.587 164.18 731.707 164.465C731.826 164.751 732.006 164.999 732.248 165.209C732.491 165.412 732.809 165.553 733.2 165.632C733.592 165.711 733.939 165.705 734.242 165.612C734.547 165.513 734.809 165.354 735.03 165.138C735.251 164.921 735.429 164.665 735.566 164.37C735.711 164.068 735.818 163.752 735.885 163.419C735.955 163.072 735.983 162.728 735.967 162.387C735.959 162.047 735.895 161.734 735.776 161.449C735.659 161.156 735.478 160.908 735.235 160.705C734.993 160.494 734.676 160.35 734.285 160.27C733.894 160.191 733.545 160.202 733.241 160.301C732.938 160.394 732.675 160.552 732.453 160.776C732.232 160.993 732.048 161.256 731.901 161.564C731.762 161.874 731.657 162.203 731.587 162.55ZM729.847 162.198C729.967 161.607 730.166 161.078 730.445 160.612C730.725 160.138 731.07 159.747 731.478 159.437C731.887 159.128 732.353 158.915 732.876 158.798C733.407 158.682 733.975 158.686 734.581 158.808C735.194 158.932 735.719 159.15 736.155 159.461C736.592 159.772 736.939 160.15 737.195 160.594C737.451 161.038 737.616 161.532 737.69 162.078C737.766 162.616 737.744 163.18 737.624 163.771C737.508 164.347 737.31 164.869 737.031 165.335C736.754 165.794 736.412 166.174 736.005 166.476C735.598 166.778 735.132 166.988 734.609 167.105C734.087 167.215 733.52 167.208 732.907 167.084C732.301 166.961 731.775 166.747 731.33 166.442C730.893 166.13 730.546 165.756 730.288 165.32C730.031 164.883 729.863 164.4 729.786 163.869C729.71 163.331 729.731 162.774 729.847 162.198ZM745.338 166.301C745.122 167.371 744.661 168.109 743.957 168.512C743.254 168.908 742.375 168.999 741.319 168.785C740.248 168.569 739.469 168.142 738.983 167.506C738.504 166.871 738.374 166.014 738.592 164.936L739.587 160.017L741.326 160.369L740.331 165.288C740.288 165.502 740.264 165.716 740.259 165.93C740.254 166.144 740.294 166.345 740.379 166.531C740.466 166.71 740.602 166.872 740.788 167.018C740.983 167.157 741.258 167.262 741.612 167.334C742.233 167.46 742.689 167.41 742.98 167.184C743.273 166.951 743.48 166.54 743.599 165.949L744.594 161.03L746.334 161.382L745.338 166.301ZM750.915 162.309L752.643 162.658L754.871 168.633L754.893 168.637L755.966 163.331L757.595 163.66L755.995 171.57L754.255 171.218L752.037 165.257L752.014 165.253L750.943 170.548L749.315 170.219L750.915 162.309ZM759.126 163.97L765.042 165.167L764.746 166.629L760.57 165.784L760.227 167.479L764.06 168.255L763.786 169.606L759.953 168.831L759.561 170.769L763.826 171.632L763.53 173.095L757.526 171.88L759.126 163.97ZM766.31 165.423L772.226 166.62L771.93 168.082L767.753 167.237L767.41 168.932L771.243 169.708L770.97 171.059L767.137 170.284L766.745 172.223L771.01 173.086L770.714 174.548L764.709 173.333L766.31 165.423ZM773.928 173.676L775.479 173.99C775.73 174.041 775.982 174.049 776.235 174.016C776.488 173.982 776.725 173.892 776.947 173.745C777.171 173.59 777.368 173.373 777.54 173.092C777.712 172.812 777.843 172.454 777.931 172.018C778.011 171.619 778.043 171.253 778.026 170.919C778.018 170.579 777.949 170.276 777.818 170.012C777.687 169.747 777.486 169.525 777.214 169.347C776.951 169.164 776.606 169.028 776.178 168.942L774.937 168.691L773.928 173.676ZM773.493 166.877L776.905 167.567C777.415 167.67 777.871 167.847 778.274 168.097C778.684 168.35 779.015 168.67 779.267 169.059C779.527 169.45 779.695 169.907 779.774 170.43C779.86 170.955 779.837 171.546 779.704 172.204C779.587 172.78 779.406 173.297 779.159 173.754C778.913 174.212 778.603 174.587 778.228 174.88C777.861 175.175 777.431 175.38 776.939 175.496C776.455 175.606 775.911 175.599 775.305 175.477L771.893 174.786L773.493 166.877ZM780.361 174.724L782.1 175.076L781.755 176.782C781.704 177.033 781.61 177.252 781.472 177.439C781.34 177.636 781.181 177.796 780.994 177.919C780.808 178.043 780.598 178.131 780.364 178.184C780.137 178.245 779.901 178.271 779.657 178.26L779.818 177.462C779.934 177.463 780.046 177.439 780.156 177.392C780.272 177.347 780.377 177.283 780.471 177.202C780.562 177.128 780.639 177.036 780.7 176.926C780.759 176.822 780.797 176.711 780.813 176.591L780.016 176.43L780.361 174.724ZM793.804 179.219L792.076 178.87L791.825 173.214L791.803 173.21L789.395 178.327L787.634 177.971L787.14 169.637L788.879 169.989L789.042 175.627L789.064 175.631L791.527 170.525L793.156 170.854L793.405 176.578L793.427 176.583L795.826 171.395L797.532 171.74L793.804 179.219ZM798.333 171.902L800.072 172.254L799.458 175.289L802.66 175.937L803.274 172.901L805.013 173.253L803.413 181.163L801.674 180.811L802.364 177.399L799.162 176.752L798.472 180.164L796.733 179.812L798.333 171.902ZM807.557 178.819L809.606 179.233L809.196 176.129L809.174 176.125L807.557 178.819ZM808.705 174L810.488 174.361L811.846 182.869L810.04 182.504L809.798 180.622L806.84 180.023L805.864 181.659L804.113 181.305L808.705 174ZM814.566 176.708L812.195 176.228L812.491 174.766L818.972 176.077L818.676 177.54L816.305 177.06L815.001 183.508L813.261 183.156L814.566 176.708ZM824.039 182.13L822.114 176.713L824.064 177.107L825.282 180.606L827.753 177.854L829.692 178.246L825.77 182.527L825.156 185.562L823.416 185.21L824.039 182.13ZM830.945 182.651C830.878 182.983 830.849 183.316 830.859 183.648C830.877 183.975 830.946 184.281 831.065 184.567C831.184 184.852 831.365 185.1 831.606 185.31C831.85 185.513 832.167 185.654 832.559 185.734C832.95 185.813 833.297 185.806 833.601 185.714C833.905 185.614 834.168 185.456 834.389 185.239C834.609 185.022 834.788 184.766 834.924 184.471C835.07 184.17 835.176 183.853 835.244 183.521C835.314 183.174 835.341 182.829 835.326 182.488C835.318 182.148 835.254 181.835 835.135 181.55C835.017 181.257 834.837 181.009 834.593 180.806C834.352 180.596 834.035 180.451 833.643 180.372C833.252 180.293 832.904 180.303 832.599 180.403C832.296 180.495 832.034 180.653 831.811 180.877C831.591 181.094 831.407 181.357 831.26 181.665C831.12 181.975 831.015 182.304 830.945 182.651ZM829.206 182.299C829.325 181.708 829.525 181.18 829.803 180.713C830.084 180.24 830.428 179.848 830.837 179.539C831.245 179.229 831.711 179.016 832.235 178.899C832.766 178.783 833.334 178.787 833.939 178.909C834.552 179.033 835.077 179.251 835.514 179.562C835.951 179.874 836.297 180.251 836.553 180.695C836.809 181.139 836.975 181.634 837.049 182.179C837.124 182.717 837.102 183.282 836.983 183.873C836.866 184.449 836.669 184.97 836.39 185.436C836.112 185.895 835.77 186.276 835.363 186.578C834.956 186.88 834.491 187.089 833.967 187.206C833.446 187.316 832.878 187.309 832.265 187.185C831.659 187.062 831.134 186.848 830.688 186.543C830.252 186.232 829.904 185.858 829.647 185.421C829.389 184.985 829.222 184.501 829.145 183.97C829.069 183.432 829.089 182.875 829.206 182.299ZM844.697 186.402C844.48 187.473 844.02 188.21 843.315 188.613C842.613 189.009 841.733 189.1 840.677 188.887C839.606 188.67 838.828 188.243 838.341 187.607C837.862 186.972 837.732 186.115 837.95 185.037L838.945 180.118L840.685 180.47L839.69 185.389C839.646 185.603 839.622 185.817 839.617 186.032C839.612 186.246 839.652 186.446 839.738 186.632C839.825 186.811 839.961 186.974 840.147 187.119C840.342 187.258 840.616 187.364 840.971 187.435C841.591 187.561 842.047 187.511 842.339 187.286C842.632 187.053 842.838 186.641 842.958 186.05L843.953 181.131L845.692 181.483L844.697 186.402ZM856.206 191.844L854.478 191.494L854.227 185.839L854.205 185.835L851.797 190.952L850.036 190.596L849.542 182.262L851.281 182.614L851.444 188.251L851.466 188.256L853.929 183.15L855.558 183.479L855.806 189.203L855.829 189.207L858.228 184.019L859.934 184.364L856.206 191.844ZM861.477 189.727L863.526 190.142L863.117 187.038L863.094 187.033L861.477 189.727ZM862.625 184.909L864.408 185.27L865.766 193.778L863.96 193.413L863.718 191.53L860.76 190.932L859.784 192.568L858.033 192.214L862.625 184.909ZM868.048 186.006L869.777 186.356L872.004 192.33L872.026 192.335L873.1 187.028L874.729 187.358L873.128 195.267L871.389 194.916L869.17 188.954L869.148 188.95L868.077 194.245L866.448 193.916L868.048 186.006ZM877.714 189.484L875.343 189.004L875.639 187.542L882.12 188.853L881.824 190.315L879.454 189.836L878.149 196.283L876.41 195.931L877.714 189.484Z" fill="#181818"/>
</g>
<defs>
<filter id="filter0_d_17_15363" x="0.964737" y="0.362671" width="945.022" height="226.697" filterUnits="userSpaceOnUse" color-interpolation-filters="sRGB">
<feFlood flood-opacity="0" result="BackgroundImageFix"/>
<feColorMatrix in="SourceAlpha" type="matrix" values="0 0 0 0 0 0 0 0 0 0 0 0 0 0 0 0 0 0 127 0" result="hardAlpha"/>
<feOffset dy="3.22935"/>
<feGaussianBlur stdDeviation="1.61468"/>
<feComposite in2="hardAlpha" operator="out"/>
<feColorMatrix type="matrix" values="0 0 0 0 0 0 0 0 0 0 0 0 0 0 0 0 0 0 0.25 0"/>
<feBlend mode="normal" in2="BackgroundImageFix" result="effect1_dropShadow_17_15363"/>
<feBlend mode="normal" in="SourceGraphic" in2="effect1_dropShadow_17_15363" result="shape"/>
</filter>
<clipPath id="clip0_17_15363">
<rect width="951.045" height="32.2935" fill="white" transform="translate(10.5977 0.362671) rotate(11.4372)"/>
</clipPath>
</defs>
</svg>
